<svg width="318" height="95" viewBox="0 0 318 95" fill="none" xmlns="http://www.w3.org/2000/svg">
<path d="M186 76H165.297V19.4375H186C203.266 19.4375 213.891 30.0625 213.891 47.7188C213.891 65.375 203.266 76 186 76ZM178.578 64.5938H185.531C195.219 64.5938 200.531 59.9844 200.531 47.7188C200.531 35.4531 195.219 30.7656 185.375 30.7656H178.578V64.5938ZM226.141 76H211.766L230.984 19.4375H248.641L267.781 76H253.484L249.656 63.8906H229.969L226.141 76ZM233.172 53.7344H246.453L240.047 33.4219H239.578L233.172 53.7344ZM261.047 19.4375H275.969L288.156 43.1875H288.625L300.812 19.4375H315.656L295.031 56.8594V76H281.75V56.8594L261.047 19.4375Z" fill="#A0E8AF"/>
<path d="M3.82812 19.4375H22.3438L35.7812 52.3281H36.4844L49.9219 19.4375H68.4375V76H53.9062V42.7188H53.4375L40.5469 75.6094H31.6406L18.8281 42.4844H18.3594V76H3.82812V19.4375ZM126.469 47.7188C126.469 66.5469 114.438 76.7812 99.125 76.7812C83.6562 76.7812 71.7031 66.4688 71.7031 47.7188C71.7031 28.8906 83.6562 18.6562 99.125 18.6562C114.438 18.6562 126.469 28.8906 126.469 47.7188ZM111.156 47.7188C111.156 37.3281 106.859 31.625 99.125 31.625C91.3125 31.625 87.0156 37.3281 87.0156 47.7188C87.0156 58.1094 91.3125 63.8125 99.125 63.8125C106.859 63.8125 111.156 58.1094 111.156 47.7188ZM178.406 19.4375V76H165.984L144.969 45.4531H144.578V76H129.734V19.4375H142.391L163.094 49.8281H163.562V19.4375H178.406Z" fill="#1C376B"/>
</svg>
