<svg width="239" height="89" viewBox="0 0 239 89" fill="none" xmlns="http://www.w3.org/2000/svg">
<path d="M34.9615 83.7519L55.0905 77.4021L55.2385 77.3573C59.4349 76.0335 61.5525 75.3654 63.9151 74.8895C66.0347 74.4625 68.295 74.1515 70.6266 73.9629C73.2546 73.7502 75.9922 73.7502 81.4873 73.7502H196.149C210.915 73.7502 218.306 73.7502 223.952 72.6159C228.922 71.6172 232.966 70.0221 235.499 68.0621C238.375 65.836 238.375 62.9246 238.375 57.1021V17.4841C238.375 11.6616 238.375 8.74601 235.499 6.51994C232.966 4.55992 228.914 2.96753 223.944 1.96884C218.293 0.833496 210.906 0.833496 196.111 0.833496H42.8942C28.0995 0.833496 20.6967 0.833496 15.0458 1.96884C10.0752 2.96753 6.0369 4.55992 3.50424 6.51994C0.625 8.74819 0.625 11.6673 0.625 17.5012V77.246C0.625 82.7965 0.625 85.5712 3.51045 86.9966C6.01988 88.2363 9.82376 88.9574 13.8462 88.9557C18.4715 88.9537 23.9699 87.2193 34.9615 83.7519Z" fill="#FFF7D9"/>
</svg>
