<svg width="281" height="29" viewBox="0 0 281 29" fill="none" xmlns="http://www.w3.org/2000/svg">
<path d="M0.699219 22V6.0918H4.83008V8.875H5.00586C5.67969 7.0293 7.29102 5.88672 9.42969 5.88672C11.627 5.88672 13.2383 7.0293 13.7656 8.875H13.9121C14.5859 7.05859 16.373 5.88672 18.7168 5.88672C21.6758 5.88672 23.7266 7.84961 23.7266 11.3066V22H19.3906V12.1562C19.3906 10.3398 18.3359 9.46094 16.9004 9.46094C15.2598 9.46094 14.3223 10.6035 14.3223 12.2734V22H10.1035V12.0391C10.1035 10.457 9.10742 9.46094 7.64258 9.46094C6.17773 9.46094 5.03516 10.6328 5.03516 12.4492V22H0.699219ZM33.0148 22.3223C28.2102 22.3223 25.2219 19.0117 25.2219 14.0898C25.2219 9.16797 28.2102 5.88672 33.0148 5.88672C37.8195 5.88672 40.8371 9.16797 40.8371 14.0898C40.8371 19.0117 37.8195 22.3223 33.0148 22.3223ZM33.0441 18.9531C35.2707 18.9531 36.4133 16.873 36.4133 14.0898C36.4133 11.2773 35.2707 9.19727 33.0441 9.19727C30.7883 9.19727 29.6164 11.2773 29.6164 14.0898C29.6164 16.873 30.7883 18.9531 33.0441 18.9531ZM46.6977 12.8008V22H42.3617V6.0918H46.4926V8.875H46.6684C47.4008 7.0293 49.1 5.88672 51.4437 5.88672C54.7543 5.88672 56.9516 8.14258 56.9223 11.8633V22H52.6156V12.625C52.6156 10.6621 51.5316 9.49023 49.7445 9.49023C47.9281 9.49023 46.6977 10.6914 46.6977 12.8008ZM66.2984 22.3223C61.4352 22.3223 58.4469 19.1582 58.4469 14.1191C58.4469 9.19727 61.4645 5.88672 66.1227 5.88672C70.3121 5.88672 73.5934 8.52344 73.5934 13.9434V15.1738H62.7242C62.7242 17.5762 64.1598 19.0703 66.3863 19.0703C67.8512 19.0703 68.9059 18.4258 69.3453 17.459H73.4762C72.8609 20.3887 70.2242 22.3223 66.2984 22.3223ZM62.7242 12.4492H69.4918C69.4918 10.5156 68.1441 9.13867 66.2105 9.13867C64.2184 9.13867 62.7975 10.6182 62.7242 12.4492ZM77.2273 27.9766C76.3777 27.9766 75.5867 27.9473 75.0301 27.8887V24.5195C75.5867 24.5488 76.2312 24.5781 76.7879 24.5781C77.6375 24.5781 78.3406 24.4902 78.868 23.1133L79.1316 22.4395L73.4187 6.0918H77.9598L81.2996 17.8105H81.4754L84.8445 6.0918H89.4441L83.2332 23.7578C82.325 26.3066 80.5965 27.9766 77.2273 27.9766ZM95.6855 22.2637C92.0527 22.2637 89.2109 19.3633 89.2109 14.0605C89.2109 8.61133 92.1699 5.88672 95.6855 5.88672C98.3516 5.88672 99.6113 7.46875 100.197 8.75781H100.344V0.789062H104.68V22H100.402V19.4512H100.197C99.582 20.7695 98.2637 22.2637 95.6855 22.2637ZM97.0332 18.8066C99.2012 18.8066 100.432 16.9023 100.432 14.0312C100.432 11.1602 99.2012 9.34375 97.0332 9.34375C94.8359 9.34375 93.6641 11.248 93.6641 14.0312C93.6641 16.8438 94.8359 18.8066 97.0332 18.8066ZM106.204 17.5469C106.204 14.002 109.075 12.8301 112.122 12.6543C113.265 12.5811 115.404 12.4785 116.077 12.4492V11.1602C116.048 9.8418 115.14 9.05078 113.529 9.05078C112.064 9.05078 111.126 9.72461 110.892 10.8086H106.761C107.025 8.05469 109.427 5.88672 113.646 5.88672C117.103 5.88672 120.384 7.43945 120.384 11.2773V22H116.282V19.8027H116.165C115.374 21.2676 113.88 22.293 111.507 22.293C108.46 22.293 106.204 20.7109 106.204 17.5469ZM110.364 17.4297C110.364 18.6602 111.361 19.3047 112.738 19.3047C114.7 19.3047 116.107 17.9863 116.077 16.3164V15.1445C115.418 15.1738 113.572 15.2764 112.825 15.3496C111.331 15.4961 110.364 16.1992 110.364 17.4297ZM124.457 27.9766C123.608 27.9766 122.817 27.9473 122.26 27.8887V24.5195C122.817 24.5488 123.461 24.5781 124.018 24.5781C124.868 24.5781 125.571 24.4902 126.098 23.1133L126.362 22.4395L120.649 6.0918H125.19L128.53 17.8105H128.705L132.075 6.0918H136.674L130.463 23.7578C129.555 26.3066 127.827 27.9766 124.457 27.9766ZM141.304 19.832L138.785 28.1816H135.679L137.144 19.832H141.304ZM155.955 22.3223C151.092 22.3223 148.104 19.1582 148.104 14.1191C148.104 9.19727 151.121 5.88672 155.779 5.88672C159.969 5.88672 163.25 8.52344 163.25 13.9434V15.1738H152.381C152.381 17.5762 153.816 19.0703 156.043 19.0703C157.508 19.0703 158.562 18.4258 159.002 17.459H163.133C162.518 20.3887 159.881 22.3223 155.955 22.3223ZM152.381 12.4492H159.148C159.148 10.5156 157.801 9.13867 155.867 9.13867C153.875 9.13867 152.454 10.6182 152.381 12.4492ZM179.101 6.0918L173.505 22H168.642L163.075 6.0918H167.646L170.986 17.5176H171.161L174.501 6.0918H179.101ZM186.69 22.3223C181.827 22.3223 178.838 19.1582 178.838 14.1191C178.838 9.19727 181.856 5.88672 186.514 5.88672C190.704 5.88672 193.985 8.52344 193.985 13.9434V15.1738H183.116C183.116 17.5762 184.551 19.0703 186.778 19.0703C188.243 19.0703 189.297 18.4258 189.737 17.459H193.868C193.252 20.3887 190.616 22.3223 186.69 22.3223ZM183.116 12.4492H189.883C189.883 10.5156 188.536 9.13867 186.602 9.13867C184.61 9.13867 183.189 10.6182 183.116 12.4492ZM195.509 22V6.0918H199.699V8.8457H199.875C200.461 6.88281 201.925 5.85742 203.712 5.85742C204.152 5.85742 204.709 5.91602 205.089 6.00391V9.87109C204.679 9.75391 203.859 9.63672 203.244 9.63672C201.281 9.63672 199.845 11.0137 199.845 12.9473V22H195.509ZM209.046 27.9766C208.196 27.9766 207.405 27.9473 206.848 27.8887V24.5195C207.405 24.5488 208.05 24.5781 208.606 24.5781C209.456 24.5781 210.159 24.4902 210.686 23.1133L210.95 22.4395L205.237 6.0918H209.778L213.118 17.8105H213.294L216.663 6.0918H221.262L215.052 23.7578C214.143 26.3066 212.415 27.9766 209.046 27.9766ZM227.504 22.2637C223.871 22.2637 221.029 19.3633 221.029 14.0605C221.029 8.61133 223.988 5.88672 227.504 5.88672C230.17 5.88672 231.43 7.46875 232.016 8.75781H232.162V0.789062H236.498V22H232.221V19.4512H232.016C231.4 20.7695 230.082 22.2637 227.504 22.2637ZM228.852 18.8066C231.02 18.8066 232.25 16.9023 232.25 14.0312C232.25 11.1602 231.02 9.34375 228.852 9.34375C226.654 9.34375 225.482 11.248 225.482 14.0312C225.482 16.8438 226.654 18.8066 228.852 18.8066ZM238.023 17.5469C238.023 14.002 240.894 12.8301 243.941 12.6543C245.083 12.5811 247.222 12.4785 247.896 12.4492V11.1602C247.866 9.8418 246.958 9.05078 245.347 9.05078C243.882 9.05078 242.945 9.72461 242.71 10.8086H238.579C238.843 8.05469 241.245 5.88672 245.464 5.88672C248.921 5.88672 252.202 7.43945 252.202 11.2773V22H248.101V19.8027H247.984C247.193 21.2676 245.698 22.293 243.325 22.293C240.279 22.293 238.023 20.7109 238.023 17.5469ZM242.183 17.4297C242.183 18.6602 243.179 19.3047 244.556 19.3047C246.519 19.3047 247.925 17.9863 247.896 16.3164V15.1445C247.237 15.1738 245.391 15.2764 244.644 15.3496C243.15 15.4961 242.183 16.1992 242.183 17.4297ZM256.276 27.9766C255.426 27.9766 254.635 27.9473 254.079 27.8887V24.5195C254.635 24.5488 255.28 24.5781 255.836 24.5781C256.686 24.5781 257.389 24.4902 257.916 23.1133L258.18 22.4395L252.467 6.0918H257.008L260.348 17.8105H260.524L263.893 6.0918H268.493L262.282 23.7578C261.373 26.3066 259.645 27.9766 256.276 27.9766ZM280.272 0.789062L279.891 15.6426H276.141L275.761 0.789062H280.272ZM278.046 22.2637C276.669 22.2637 275.555 21.1504 275.585 19.8027C275.555 18.4551 276.669 17.3711 278.046 17.3711C279.335 17.3711 280.477 18.4551 280.477 19.8027C280.477 21.1504 279.335 22.2637 278.046 22.2637Z" fill="#D9D9D9"/>
</svg>
