<svg width="25" height="25" viewBox="0 0 25 25" fill="none" xmlns="http://www.w3.org/2000/svg">
<path d="M3.12505 17.7087C3.125 17.6415 3.125 17.5721 3.125 17.5005V7.50053C3.125 6.33375 3.125 5.74993 3.35207 5.30428C3.55181 4.91228 3.87028 4.5938 4.26229 4.39406C4.70794 4.16699 5.29176 4.16699 6.45854 4.16699H18.5419C19.7086 4.16699 20.2917 4.16699 20.7374 4.39406C21.1294 4.5938 21.4484 4.91228 21.6482 5.30428C21.875 5.74949 21.875 6.33261 21.875 7.49711V17.5035C21.875 18.0088 21.875 18.4044 21.8565 18.7268M3.12505 17.7087C3.12585 18.7383 3.13893 19.2772 3.35207 19.6955C3.55181 20.0875 3.87028 20.4071 4.26229 20.6068C4.7075 20.8337 5.29062 20.8337 6.45511 20.8337H18.5454C19.7099 20.8337 20.2922 20.8337 20.7374 20.6068C21.1294 20.4071 21.4484 20.0875 21.6482 19.6955C21.7766 19.4435 21.8323 19.1475 21.8565 18.7268M3.12505 17.7087L8.09164 11.9144L8.09311 11.9128C8.53361 11.3989 8.75423 11.1415 9.01591 11.0487C9.24577 10.9672 9.49673 10.9691 9.72544 11.0538C9.98608 11.1503 10.2032 11.4106 10.6374 11.9317L13.4199 15.2706C13.8218 15.753 14.024 15.9956 14.2694 16.0929C14.4859 16.1788 14.7246 16.1885 14.948 16.1225C15.2023 16.0475 15.4261 15.8237 15.8737 15.3761L16.3915 14.8583C16.8472 14.4026 17.0751 14.1749 17.333 14.1005C17.5595 14.0351 17.8017 14.0491 18.0196 14.1391C18.2677 14.2416 18.469 14.4924 18.8716 14.9956L21.8565 18.7268M21.8565 18.7268L21.875 18.7499M15.625 10.417C15.0497 10.417 14.5833 9.95062 14.5833 9.37533C14.5833 8.80003 15.0497 8.33366 15.625 8.33366C16.2003 8.33366 16.6667 8.80003 16.6667 9.37533C16.6667 9.95062 16.2003 10.417 15.625 10.417Z" stroke="#8E8E8E" stroke-width="2" stroke-linecap="round" stroke-linejoin="round"/>
</svg>
