<svg width="40" height="40" viewBox="0 0 40 40" fill="none" xmlns="http://www.w3.org/2000/svg">
<path fill-rule="evenodd" clip-rule="evenodd" d="M18.5856 4.58606C18.9606 4.21112 19.4692 4.00049 19.9996 4.00049C20.5299 4.00049 21.0385 4.21112 21.4136 4.58606L35.4136 18.5861C35.6932 18.8658 35.8836 19.2221 35.9607 19.61C36.0379 19.9979 35.9983 20.4 35.8469 20.7654C35.6956 21.1308 35.4393 21.4431 35.1105 21.6629C34.7817 21.8826 34.3951 22 33.9996 22.0001H31.9996V34.0001C31.9996 34.5305 31.7889 35.0392 31.4138 35.4143C31.0387 35.7893 30.53 36.0001 29.9996 36.0001H25.9996C25.4691 36.0001 24.9604 35.7893 24.5854 35.4143C24.2103 35.0392 23.9996 34.5305 23.9996 34.0001V28.0001C23.9996 27.4696 23.7889 26.9609 23.4138 26.5858C23.0387 26.2108 22.53 26.0001 21.9996 26.0001H17.9996C17.4691 26.0001 16.9604 26.2108 16.5854 26.5858C16.2103 26.9609 15.9996 27.4696 15.9996 28.0001V34.0001C15.9996 34.5305 15.7889 35.0392 15.4138 35.4143C15.0387 35.7893 14.53 36.0001 13.9996 36.0001H9.99957C9.46914 36.0001 8.96043 35.7893 8.58536 35.4143C8.21029 35.0392 7.99957 34.5305 7.99957 34.0001V22.0001H5.99957C5.60407 22 5.21748 21.8826 4.88866 21.6629C4.55984 21.4431 4.30356 21.1308 4.15222 20.7654C4.00088 20.4 3.96127 19.9979 4.03841 19.61C4.11554 19.2221 4.30595 18.8658 4.58557 18.5861L18.5856 4.58606Z" fill="#A0E8AF"/>
</svg>
