<svg width="181" height="62" viewBox="0 0 181 62" fill="none" xmlns="http://www.w3.org/2000/svg">
<path d="M19.1484 16.7188H27.3906L34.6953 34.5312H35.0078L42.3125 16.7188H50.5547V45H44.0703V27.4219H43.8359L36.9609 44.8438H32.7422L25.8672 27.3438H25.6328V45H19.1484V16.7188ZM81.375 30.8594C81.375 40.1953 75.5156 45.3906 67.9375 45.3906C60.3203 45.3906 54.5 40.1562 54.5 30.8594C54.5 21.5234 60.3203 16.3281 67.9375 16.3281C75.5156 16.3281 81.375 21.5234 81.375 30.8594ZM74.5781 30.8594C74.5781 25.2344 72.0781 22.1875 67.9375 22.1875C63.7969 22.1875 61.2969 25.2344 61.2969 30.8594C61.2969 36.4844 63.7969 39.5312 67.9375 39.5312C72.0781 39.5312 74.5781 36.4844 74.5781 30.8594ZM109.305 16.7188V45H103.641L92.1562 28.3984H91.9609V45H85.3203V16.7188H91.0625L102.43 33.3203H102.664V16.7188H109.305Z" fill="#A0E8AF"/>
<path d="M141.492 23.9062V28.3984H116.297V14.4531H121.922V23.9062H141.492ZM145.086 32.0703V36.5625H137.898V48.75H132.195V36.5625H125.281V48.75H119.656V36.5625H112.391V32.0703H145.086ZM166.141 17.4219C166.102 22.4219 170.008 28.0859 178.719 29.5312L176.258 34.1797C169.852 32.9688 165.438 29.5703 163.133 25.1562C160.809 29.5312 156.375 32.9492 150.008 34.1797L147.625 29.5312C156.141 28.0469 160.086 22.3438 160.125 17.4219V14.9219H166.141V17.4219ZM179.734 39.8828V44.4922H146.961V39.8828H179.734Z" fill="white"/>
<circle cx="30.582" cy="30.582" r="30.582" fill="url(#paint0_linear_670_2688)"/>
<defs>
<linearGradient id="paint0_linear_670_2688" x1="0" y1="30.582" x2="61.1639" y2="30.582" gradientUnits="userSpaceOnUse">
<stop stop-color="#A0E8AF"/>
<stop offset="1" stop-color="#A0E8AF" stop-opacity="0"/>
</linearGradient>
</defs>
</svg>
