<svg width="181" height="99" viewBox="0 0 181 99" fill="none" xmlns="http://www.w3.org/2000/svg">
<path d="M19.1484 16.7188H27.3906L34.6953 34.5312H35.0078L42.3125 16.7188H50.5547V45H44.0703V27.4219H43.8359L36.9609 44.8438H32.7422L25.8672 27.3438H25.6328V45H19.1484V16.7188ZM81.375 30.8594C81.375 40.1953 75.5156 45.3906 67.9375 45.3906C60.3203 45.3906 54.5 40.1562 54.5 30.8594C54.5 21.5234 60.3203 16.3281 67.9375 16.3281C75.5156 16.3281 81.375 21.5234 81.375 30.8594ZM74.5781 30.8594C74.5781 25.2344 72.0781 22.1875 67.9375 22.1875C63.7969 22.1875 61.2969 25.2344 61.2969 30.8594C61.2969 36.4844 63.7969 39.5312 67.9375 39.5312C72.0781 39.5312 74.5781 36.4844 74.5781 30.8594ZM109.305 16.7188V45H103.641L92.1562 28.3984H91.9609V45H85.3203V16.7188H91.0625L102.43 33.3203H102.664V16.7188H109.305Z" fill="#A0E8AF"/>
<path d="M141.492 23.9062V28.3984H116.297V14.4531H121.922V23.9062H141.492ZM145.086 32.0703V36.5625H137.898V48.75H132.195V36.5625H125.281V48.75H119.656V36.5625H112.391V32.0703H145.086ZM166.141 17.4219C166.102 22.4219 170.008 28.0859 178.719 29.5312L176.258 34.1797C169.852 32.9688 165.438 29.5703 163.133 25.1562C160.809 29.5312 156.375 32.9492 150.008 34.1797L147.625 29.5312C156.141 28.0469 160.086 22.3438 160.125 17.4219V14.9219H166.141V17.4219ZM179.734 39.8828V44.4922H146.961V39.8828H179.734Z" fill="#1C376B"/>
<circle cx="30.582" cy="30.582" r="30.582" fill="url(#paint0_linear_1564_2245)"/>
<path d="M4.3125 77.9688V79.9961C5.35547 79.9434 6.41602 79.8555 7.41797 79.7031L7.47656 80.2656C5.08594 80.6875 2.50781 80.6992 0.632812 80.6992L0.515625 80.0664C1.41211 80.0664 2.4668 80.0664 3.57422 80.0195V77.9688H4.3125ZM4.30078 74.6055C4.30078 76.0469 5.51953 77.1836 7.03125 77.6289L6.67969 78.2266C5.43164 77.8281 4.39453 77.002 3.9375 75.8828C3.49805 77.0605 2.4668 77.9277 1.23047 78.332L0.867188 77.7578C2.36719 77.2891 3.5625 76.1055 3.5625 74.6055H1.10156V73.9727H3.57422V72.6484H4.3125V73.9727H6.83203V74.6055H4.30078ZM8.87109 72.5781V82.9258H8.13281V72.5781H8.87109ZM18.8442 72.5781V80.1719H18.1059V72.5781H18.8442ZM19.1841 82.0469V82.668H12.2466V79.4805H12.9848V82.0469H19.1841ZM13.9106 74.207C13.8989 75.8594 15.0942 77.3008 16.5825 77.8633L16.1841 78.4609C14.9888 77.9746 13.9985 76.9902 13.5473 75.7188C13.1079 77.0664 12.1177 78.1387 10.9223 78.6484L10.5005 78.0625C12.0005 77.4531 13.1606 75.918 13.1723 74.207V73.1523H13.9106V74.207ZM31.1733 72.5781V78.8711H30.435V77.3594H27.5405V76.7266H30.435V75.1914H27.6694C26.978 76.873 25.3315 78.1094 23.1225 78.7773L22.8061 78.1797C25.3373 77.4121 27.0366 75.9238 27.2123 74.0078H23.3334V73.375H28.0092C28.0092 73.8027 27.9565 74.207 27.8569 74.5938H30.435V72.5781H31.1733ZM27.81 78.9648C29.9077 78.9648 31.2319 79.6914 31.2319 80.9102C31.2319 82.1406 29.9077 82.8672 27.81 82.8672C25.7006 82.8672 24.3764 82.1406 24.3764 80.9102C24.3764 79.6914 25.7006 78.9648 27.81 78.9648ZM27.81 79.5742C26.1694 79.5742 25.103 80.0781 25.103 80.9102C25.103 81.7422 26.1694 82.2578 27.81 82.2578C29.4272 82.2578 30.4936 81.7422 30.4936 80.9102C30.4936 80.0781 29.4272 79.5742 27.81 79.5742ZM41.3456 72.5781V82.9141H40.6308V72.5781H41.3456ZM39.2597 72.8477V82.3516H38.5566V76.9727H36.6933V76.3516H38.5566V72.8477H39.2597ZM35.5097 75.5664C35.498 77.3945 36.4003 79.1875 37.7948 79.9961L37.3378 80.5586C36.2948 79.9258 35.5155 78.7539 35.1581 77.3594C34.789 78.8594 33.9863 80.1309 32.9198 80.793L32.4511 80.2422C33.8573 79.3984 34.7948 77.5 34.7948 75.5664V74.4648H32.6972V73.8438H37.5019V74.4648H35.5097V75.5664ZM53.3348 72.5781V82.9258H52.5966V72.5781H53.3348ZM47.8739 73.3984C49.3973 73.3984 50.4872 74.793 50.4872 76.9727C50.4872 79.1523 49.3973 80.5469 47.8739 80.5469C46.3387 80.5469 45.2606 79.1523 45.2606 76.9727C45.2606 74.793 46.3387 73.3984 47.8739 73.3984ZM47.8739 74.0547C46.7606 74.0547 45.9755 75.25 45.9755 76.9727C45.9755 78.707 46.7606 79.8906 47.8739 79.8906C48.9872 79.8906 49.7606 78.707 49.7606 76.9727C49.7606 75.25 48.9872 74.0547 47.8739 74.0547ZM64.1869 78.5547V79.1758H61.6908V83.0078H60.9525V79.1758H57.9759V83.0078H57.2377V79.1758H54.7298V78.5547H64.1869ZM59.8392 73.5859C59.8392 75.1211 61.9603 76.3867 63.6478 76.6328L63.3314 77.2539C61.8197 76.9668 60.1087 76.0527 59.4642 74.7227C58.8197 76.0703 57.1087 76.9668 55.5853 77.2539L55.2689 76.6328C56.9681 76.375 59.0775 75.1562 59.0775 73.5859V72.9648H59.8392V73.5859ZM74.078 77.4297V78.0273H64.6209V77.4297H74.078ZM72.8827 78.9648V81.0859H66.5311V82.1992H73.2342V82.7617H65.8045V80.5352H72.1444V79.5391H65.7811V78.9648H72.8827ZM72.8475 72.9297V74.9688H66.5897V75.9883H73.0233V76.5508H65.8631V74.4414H72.1092V73.4805H65.828V72.9297H72.8475ZM79.3523 79.0352V80.2422H84.6141V79.0352H85.3406V82.7617H78.6023V79.0352H79.3523ZM79.3523 82.1406H84.6141V80.8398H79.3523V82.1406ZM85.3406 72.5781V78.5078H84.6023V72.5781H85.3406ZM76.95 77.1602C78.9187 77.1602 81.5437 77.1602 83.8523 76.8555L83.8992 77.4062C82.9207 77.5645 81.9012 77.6641 80.9109 77.7109V79.375H80.1727V77.7461C79.0477 77.793 77.9812 77.793 77.0672 77.793L76.95 77.1602ZM80.8055 73.375C80.8055 74.5 81.9656 75.3906 83.4187 75.7188L83.0906 76.2812C81.8719 75.9941 80.8758 75.332 80.4422 74.418C80.0145 75.3848 79.0125 76.1113 77.7937 76.4453L77.4422 75.8594C78.907 75.4961 80.0555 74.5469 80.0555 73.375V72.8125H80.8055V73.375ZM95.6419 72.5781V82.9141H94.927V72.5781H95.6419ZM93.4856 72.8711V82.3633H92.7708V77.5117H90.4153C89.7708 78.7188 88.763 79.7969 87.3216 80.6523L86.8763 80.1133C89.1848 78.7422 90.3802 76.7441 90.5442 74.5469H87.2864V73.9141H91.2708C91.2708 74.9453 91.0891 75.959 90.6966 76.9023H92.7708V72.8711H93.4856ZM98.2087 73.5156L98.1502 79.5742H97.365L97.3064 73.5156H98.2087ZM97.7634 82.0586C97.4119 82.0586 97.1306 81.7773 97.1306 81.4375C97.1306 81.0859 97.4119 80.8047 97.7634 80.8047C98.1033 80.8047 98.3845 81.0859 98.3845 81.4375C98.3845 81.7773 98.1033 82.0586 97.7634 82.0586ZM5.15625 87.3047C7.34766 87.3047 8.90625 88.3594 8.90625 89.9648C8.90625 91.4883 7.52344 92.4902 5.53125 92.6016V94.9102H9.92578V95.543H0.457031V94.9102H4.79297V92.6016C2.80664 92.4961 1.41797 91.4883 1.41797 89.9648C1.41797 88.3594 2.97656 87.3047 5.15625 87.3047ZM5.15625 87.9141C3.41016 87.9141 2.12109 88.7461 2.12109 89.9648C2.12109 91.1836 3.41016 92.0156 5.15625 92.0156C6.90234 92.0156 8.20312 91.1836 8.20312 89.9648C8.20312 88.7461 6.90234 87.9141 5.15625 87.9141ZM18.6802 89.1914V89.8125H11.6606V86.7539H12.3755V89.1914H18.6802ZM19.7934 90.9375V91.5586H10.3364V90.9375H19.7934ZM18.563 92.5898V94.8984H12.3169V96.1641H18.938V96.7617H11.5786V94.3242H17.8364V93.1875H11.5552V92.5898H18.563ZM23.6259 87.3516C25.2548 87.3516 26.3798 88.3242 26.3916 89.7422C26.3798 91.1719 25.2548 92.1328 23.6259 92.1328C22.0088 92.1328 20.8603 91.1719 20.8603 89.7422C20.8603 88.3242 22.0088 87.3516 23.6259 87.3516ZM23.6259 88.0078C22.4423 88.0078 21.5752 88.7344 21.5869 89.7422C21.5752 90.75 22.4423 91.4883 23.6259 91.4766C24.8095 91.4883 25.665 90.75 25.665 89.7422C25.665 88.7344 24.8095 88.0078 23.6259 88.0078ZM28.6533 86.5781V96.9258H27.915V86.5781H28.6533ZM20.2978 93.9375C22.2314 93.9492 24.8798 93.9375 27.2002 93.5859L27.2588 94.1484C24.8681 94.5938 22.29 94.5938 20.415 94.5938L20.2978 93.9375ZM33.0956 87.5156H34.0683L37.1034 94.8047H37.1855L40.2089 87.5156H41.1933V96H40.3964V89.2383H40.3261L37.5136 96H36.7636L33.9511 89.2383H33.8808V96H33.0956V87.5156ZM49.725 91.7578C49.725 94.418 48.1898 96.1172 46.0453 96.1172C43.8891 96.1172 42.3539 94.418 42.3539 91.7578C42.3539 89.0977 43.8891 87.3984 46.0453 87.3984C48.1898 87.3984 49.725 89.0977 49.725 91.7578ZM48.9164 91.7578C48.9164 89.4961 47.6859 88.1836 46.0453 88.1836C44.4047 88.1836 43.1742 89.4961 43.1742 91.7578C43.1742 94.0078 44.393 95.332 46.0453 95.332C47.6859 95.332 48.9164 94.0195 48.9164 91.7578ZM57.5302 87.5156V96H56.7333L51.7997 89.0039H51.7294V96H50.8973V87.5156H51.7059L56.6395 94.5234H56.7098V87.5156H57.5302ZM66.8119 90.1523V90.7734H59.7337V87.1172H60.4837V90.1523H66.8119ZM67.9369 92.3789V93H65.3822V96.9141H64.6439V93H61.7962V96.9141H61.058V93H58.515V92.3789H67.9369ZM73.4686 88.1484C73.4686 90 75.7186 91.5703 77.3475 91.875L76.9842 92.5078C75.5252 92.1445 73.7498 91.0137 73.0936 89.4258C72.4373 91.0137 70.662 92.1445 69.203 92.5078L68.8514 91.875C70.4803 91.5586 72.6952 90.0117 72.7069 88.1484V87.3281H73.4686V88.1484ZM77.8748 94.8398V95.4609H68.4061V94.8398H77.8748ZM87.7425 91.4297V92.0273H78.2855V91.4297H87.7425ZM86.5472 92.9648V95.0859H80.1956V96.1992H86.8988V96.7617H79.4691V94.5352H85.8089V93.5391H79.4456V92.9648H86.5472ZM86.512 86.9297V88.9688H80.2542V89.9883H86.6878V90.5508H79.5277V88.4414H85.7738V87.4805H79.4925V86.9297H86.512ZM98.6536 86.5781V88.8984H100.247V89.5195H98.6536V91.875H97.9153V86.5781H98.6536ZM98.6536 92.3906V94.8047H92.888V96.1523H99.052V96.7617H92.1614V94.2305H97.9153V93H92.138V92.3906H98.6536ZM93.4973 86.9766C95.0442 86.9766 96.1458 87.9023 96.1575 89.25C96.1458 90.6094 95.0442 91.5352 93.4973 91.5352C91.9622 91.5352 90.8372 90.6094 90.8372 89.25C90.8372 87.9023 91.9622 86.9766 93.4973 86.9766ZM93.4973 87.5977C92.3841 87.5977 91.5638 88.3008 91.5638 89.25C91.5638 90.2109 92.3841 90.9258 93.4973 90.9258C94.6106 90.9258 95.4309 90.2109 95.4309 89.25C95.4309 88.3008 94.6106 87.5977 93.4973 87.5977ZM103.248 87.3984C104.76 87.3984 105.826 88.793 105.826 90.9727C105.826 93.1523 104.76 94.5469 103.248 94.5469C101.736 94.5469 100.681 93.1523 100.693 90.9727C100.681 88.793 101.736 87.3984 103.248 87.3984ZM103.248 88.0547C102.158 88.0547 101.385 89.25 101.385 90.9727C101.385 92.707 102.158 93.8906 103.248 93.8906C104.361 93.8906 105.111 92.707 105.123 90.9727C105.111 89.25 104.361 88.0547 103.248 88.0547ZM108.451 86.5781V90.7852H110.232V91.418H108.451V96.9141H107.713V86.5781H108.451ZM119.854 94.9219V95.5547H110.385V94.9219H114.721V92.5898H111.533V87.3281H112.283V89.2734H117.932V87.3281H118.658V92.5898H115.459V94.9219H119.854ZM112.283 91.9688H117.932V89.8945H112.283V91.9688ZM123.663 89.8711C123.663 91.5469 124.975 93.375 126.405 94.0664L125.971 94.6523C124.823 94.0723 123.774 92.8066 123.311 91.3711C122.837 92.9238 121.712 94.3066 120.581 94.9102L120.124 94.3242C121.53 93.6211 122.936 91.6523 122.948 89.8711V88.2891H120.487V87.6562H126.077V88.2891H123.663V89.8711ZM128.233 86.5781V90.832H130.014V91.4648H128.233V96.9141H127.495V86.5781H128.233Z" fill="#8E8E8E"/>
<defs>
<linearGradient id="paint0_linear_1564_2245" x1="0" y1="30.582" x2="61.1639" y2="30.582" gradientUnits="userSpaceOnUse">
<stop stop-color="#A0E8AF"/>
<stop offset="1" stop-color="#A0E8AF" stop-opacity="0"/>
</linearGradient>
</defs>
</svg>
