<svg width="203" height="99" viewBox="0 0 203 99" fill="none" xmlns="http://www.w3.org/2000/svg">
<path d="M19.1484 16.7188H27.3906L34.6953 34.5312H35.0078L42.3125 16.7188H50.5547V45H44.0703V27.4219H43.8359L36.9609 44.8438H32.7422L25.8672 27.3438H25.6328V45H19.1484V16.7188ZM81.375 30.8594C81.375 40.1953 75.5156 45.3906 67.9375 45.3906C60.3203 45.3906 54.5 40.1562 54.5 30.8594C54.5 21.5234 60.3203 16.3281 67.9375 16.3281C75.5156 16.3281 81.375 21.5234 81.375 30.8594ZM74.5781 30.8594C74.5781 25.2344 72.0781 22.1875 67.9375 22.1875C63.7969 22.1875 61.2969 25.2344 61.2969 30.8594C61.2969 36.4844 63.7969 39.5312 67.9375 39.5312C72.0781 39.5312 74.5781 36.4844 74.5781 30.8594ZM109.305 16.7188V45H103.641L92.1562 28.3984H91.9609V45H85.3203V16.7188H91.0625L102.43 33.3203H102.664V16.7188H109.305Z" fill="#A0E8AF"/>
<path d="M133.406 15.1172V17.5391C133.406 20.6055 133.406 24.4336 132.312 29.9609C133.484 29.8633 134.656 29.7656 135.789 29.6484L136.219 33.7891C133.016 34.2578 129.773 34.5703 126.57 34.7656V46.8359H120.945V35C118.113 35.0977 115.379 35.1172 112.82 35.1172L112.156 30.625C116.609 30.5859 121.648 30.5273 126.727 30.2734C126.98 28.9258 127.215 27.6562 127.391 26.4844L114.891 27.5391L114.148 22.9297L127.781 22.4219C127.84 21.4062 127.879 20.4688 127.898 19.6094H115.086V15.1172H133.406ZM143.367 12.8906V48.75H137.664V12.8906H143.367ZM179.734 40V44.5703H146.961V40H179.734ZM176.844 15.7812V20.2344H166.297C166.492 24.8633 170.242 29.2188 178.641 30.4688L176.453 34.9219C170.027 33.8281 165.613 30.8984 163.328 26.875C161.082 30.9961 156.727 34.0625 150.398 35.1562L148.211 30.625C156.316 29.4141 160.047 24.8633 160.32 20.2344H149.695V15.7812H176.844Z" fill="#1C376B"/>
<circle cx="30.582" cy="30.582" r="30.582" fill="url(#paint0_linear_694_2154)"/>
<path d="M5.15625 73.3047C7.34766 73.3047 8.90625 74.3594 8.90625 75.9648C8.90625 77.4883 7.52344 78.4902 5.53125 78.6016V80.9102H9.92578V81.543H0.457031V80.9102H4.79297V78.6016C2.80664 78.4961 1.41797 77.4883 1.41797 75.9648C1.41797 74.3594 2.97656 73.3047 5.15625 73.3047ZM5.15625 73.9141C3.41016 73.9141 2.12109 74.7461 2.12109 75.9648C2.12109 77.1836 3.41016 78.0156 5.15625 78.0156C6.90234 78.0156 8.20312 77.1836 8.20312 75.9648C8.20312 74.7461 6.90234 73.9141 5.15625 73.9141ZM18.6802 75.1914V75.8125H11.6606V72.7539H12.3755V75.1914H18.6802ZM19.7934 76.9375V77.5586H10.3364V76.9375H19.7934ZM18.563 78.5898V80.8984H12.3169V82.1641H18.938V82.7617H11.5786V80.3242H17.8364V79.1875H11.5552V78.5898H18.563ZM28.853 73.7383V74.3594H22.6889V73.7383H25.4077V72.5312H26.1342V73.7383H28.853ZM25.7709 74.9688C27.2475 74.9688 28.2319 75.6836 28.2319 76.8203C28.2319 77.9453 27.2475 78.6602 25.7709 78.6602C24.2827 78.6602 23.2983 77.9453 23.2983 76.8203C23.2983 75.6836 24.2827 74.9688 25.7709 74.9688ZM25.7709 75.5547C24.7045 75.5547 23.9897 76.0703 24.0014 76.8203C23.9897 77.5703 24.7045 78.0625 25.7709 78.0625C26.8256 78.0625 27.5287 77.5703 27.5405 76.8203C27.5287 76.0703 26.8256 75.5547 25.7709 75.5547ZM30.7045 72.5781V75.4961H32.2983V76.1289H30.7045V79.0234H29.9662V72.5781H30.7045ZM30.7045 79.6445V82.9141H29.9662V80.2539H23.9897V79.6445H30.7045ZM34.5136 78.7773V80.0898H39.9745V78.7773H40.7245V82.7617H33.7753V78.7773H34.5136ZM34.5136 82.1523H39.9745V80.6992H34.5136V82.1523ZM41.9667 77.3477V77.9805H32.5448V77.3477H41.9667ZM37.6308 73.2227C37.6308 74.582 39.7402 75.707 41.4042 75.9414L41.123 76.5273C39.6054 76.293 37.9003 75.4551 37.2558 74.2422C36.623 75.4668 34.9062 76.293 33.3886 76.5273L33.1073 75.9414C34.7948 75.6953 36.8808 74.6172 36.8808 73.2227V72.6836H37.6308V73.2227ZM50.4867 72.5781V76.0703H52.0805V76.7031H50.4867V80.3359H49.7484V72.5781H50.4867ZM48.6352 73.9023V74.5234H42.4711V73.9023H45.1898V72.5898H45.9164V73.9023H48.6352ZM45.5531 75.1562C47.018 75.1562 48.0141 75.9062 48.0141 77.0664C48.0141 78.2266 47.018 78.9648 45.5531 78.9648C44.0648 78.9648 43.0805 78.2266 43.0805 77.0664C43.0805 75.9062 44.0648 75.1562 45.5531 75.1562ZM45.5531 75.7539C44.4867 75.7539 43.7719 76.2812 43.7836 77.0664C43.7719 77.8398 44.4867 78.3672 45.5531 78.3555C46.6078 78.3672 47.3109 77.8398 47.3227 77.0664C47.3109 76.2812 46.6078 75.7539 45.5531 75.7539ZM50.9906 82.0469V82.668H44.0883V79.7031H44.8148V82.0469H50.9906ZM63.5423 72.5781V82.9141H62.8158V77.5H61.14V82.3633H60.4369V72.8242H61.14V76.8555H62.8158V72.5781H63.5423ZM56.0306 73.8672V79.5156C57.1146 79.5098 58.2748 79.4336 59.6283 79.1641L59.722 79.832C58.2689 80.1016 57.0736 80.1836 55.9252 80.1719H55.2923V73.8672H56.0306ZM74.0545 77.7578V78.3789H64.6327V77.7578H67.035V76.2227C66.1854 75.9121 65.7108 75.3848 65.7108 74.6758C65.7108 73.4688 67.0819 72.7891 69.3319 72.7891C71.5819 72.7891 72.953 73.4688 72.953 74.6758C72.953 75.3789 72.4842 75.9062 71.6522 76.2109V77.7578H74.0545ZM69.3436 79.2578C71.5584 79.2461 72.8827 79.8906 72.8827 81.0625C72.8827 82.2344 71.5584 82.8906 69.3436 82.8906C67.1053 82.8906 65.7811 82.2344 65.7811 81.0625C65.7811 79.8906 67.1053 79.2461 69.3436 79.2578ZM69.3436 79.832C67.6092 79.8438 66.5311 80.3008 66.5311 81.0625C66.5311 81.8359 67.6092 82.293 69.3436 82.293C71.0545 82.293 72.1444 81.8359 72.1444 81.0625C72.1444 80.3008 71.0545 79.8438 69.3436 79.832ZM69.3319 73.375C67.5741 73.375 66.4608 73.8789 66.4725 74.6758C66.4608 75.4844 67.5741 75.9766 69.3319 75.9766C71.0897 75.9766 72.203 75.4844 72.203 74.6758C72.203 73.8789 71.0897 73.375 69.3319 73.375ZM67.7733 77.7578H70.9256V76.4219C70.4627 76.5156 69.9295 76.5625 69.3319 76.5625C68.7518 76.5625 68.2303 76.5156 67.7733 76.4219V77.7578ZM79.223 72.7656C81.4964 72.7656 82.8441 73.3984 82.8441 74.5586C82.8441 75.7305 81.4964 76.375 79.223 76.375C76.9495 76.375 75.6019 75.7305 75.6019 74.5586C75.6019 73.3984 76.9495 72.7656 79.223 72.7656ZM79.223 73.3398C77.4534 73.3398 76.3636 73.8086 76.3636 74.5586C76.3636 75.3438 77.4534 75.8008 79.223 75.8008C81.0042 75.8008 82.0941 75.3438 82.0941 74.5586C82.0941 73.8086 81.0042 73.3398 79.223 73.3398ZM83.9456 77.1484V77.7578H74.5238V77.1484H83.9456ZM82.7034 78.7422V80.957H76.4339V82.1758H83.0316V82.7852H75.7191V80.3828H81.9886V79.3281H75.6839V78.7422H82.7034ZM95.3372 72.5781V77.875H94.6106V75.5898H92.2903C92.1321 76.8086 91.0833 77.6406 89.6653 77.6406C88.1184 77.6406 86.9934 76.668 87.0052 75.2852C86.9934 73.9023 88.1184 72.9531 89.6653 72.9531C91.0774 72.9531 92.1204 73.7559 92.2903 74.957H94.6106V72.5781H95.3372ZM89.6653 73.5742C88.5286 73.5742 87.7083 74.3125 87.7083 75.2852C87.7083 76.2812 88.5286 77.0195 89.6653 77.0078C90.7669 77.0195 91.5989 76.2812 91.5989 75.2852C91.5989 74.3125 90.7669 73.5742 89.6653 73.5742ZM95.3372 78.4844V80.8516H89.4544V82.1523H95.7708V82.7617H88.7278V80.2773H94.6106V79.082H88.6927V78.4844H95.3372ZM101.877 73.6328V80.2422H97.1775V73.6328H101.877ZM97.8923 74.2422V79.6328H101.15V74.2422H97.8923ZM104.677 72.5781V76.7852H106.459V77.418H104.677V82.9141H103.939V72.5781H104.677ZM116.315 76.7734V77.4062H114.569V82.9141H113.83V72.5781H114.569V76.7734H116.315ZM107.795 73.5977V79.6211H107.865C109.424 79.6328 110.983 79.5156 112.74 79.1406L112.834 79.7852C111.041 80.1484 109.459 80.2539 107.865 80.2539H107.069V73.5977H107.795ZM127.718 72.5781V82.9141H127.003V72.5781H127.718ZM125.632 72.8477V82.3516H124.929V76.9727H123.066V76.3516H124.929V72.8477H125.632ZM121.882 75.5664C121.87 77.3945 122.773 79.1875 124.167 79.9961L123.71 80.5586C122.667 79.9258 121.888 78.7539 121.53 77.3594C121.161 78.8594 120.359 80.1309 119.292 80.793L118.823 80.2422C120.23 79.3984 121.167 77.5 121.167 75.5664V74.4648H119.07V73.8438H123.874V74.4648H121.882V75.5664ZM137.609 72.5781V82.9141H136.894V77.4062H135.218V82.3633H134.527V72.8242H135.218V76.7852H136.894V72.5781H137.609ZM133.097 73.8555V74.4766H129.957V79.6445C131.545 79.6445 132.547 79.5801 133.718 79.3281L133.8 79.9609C132.558 80.2305 131.527 80.2773 129.863 80.2891H129.218V73.8555H133.097ZM148.168 80.957V81.5898H138.699V80.957H143.035V78.8711H139.918V75.7773H146.211V73.9961H139.883V73.375H146.938V76.3984H140.645V78.25H147.184V78.8711H143.774V80.957H148.168ZM159.056 72.5781V74.8984H160.65V75.5195H159.056V77.875H158.318V72.5781H159.056ZM159.056 78.3906V80.8047H153.29V82.1523H159.454V82.7617H152.564V80.2305H158.318V79H152.54V78.3906H159.056ZM153.9 72.9766C155.446 72.9766 156.548 73.9023 156.56 75.25C156.548 76.6094 155.446 77.5352 153.9 77.5352C152.364 77.5352 151.239 76.6094 151.239 75.25C151.239 73.9023 152.364 72.9766 153.9 72.9766ZM153.9 73.5977C152.786 73.5977 151.966 74.3008 151.966 75.25C151.966 76.2109 152.786 76.9258 153.9 76.9258C155.013 76.9258 155.833 76.2109 155.833 75.25C155.833 74.3008 155.013 73.5977 153.9 73.5977ZM169.111 73.668V74.7109C169.099 75.9766 169.099 77.3828 168.736 79.4219L167.986 79.3281C168.361 77.3828 168.361 75.9531 168.373 74.7109V74.2891H161.916V73.668H169.111ZM170.318 80.7461V81.3789H160.896V80.7461H164.693V77.0078H165.42V80.7461H170.318ZM176.612 79.6094C176.612 80.5527 177.157 81.5664 178.182 82.1172C179.208 81.5078 179.776 80.4238 179.776 79.6094V78.9648H180.503V79.6094C180.491 80.6758 181.346 81.7539 182.659 82.2109L182.284 82.7734C181.241 82.3926 180.479 81.6426 180.128 80.7578C179.817 81.6074 179.172 82.4395 178.206 82.8555C177.192 82.4629 176.536 81.6777 176.237 80.793C175.874 81.6367 175.129 82.3867 174.128 82.7734L173.741 82.2109C175.042 81.7305 175.897 80.5938 175.897 79.6094V78.9648H176.612V79.6094ZM181.698 72.5781V78.5078H180.96V72.5781H181.698ZM176.143 73.2109C177.702 73.2109 178.815 74.1719 178.815 75.6016C178.815 77.0195 177.702 77.9805 176.143 77.9805C174.585 77.9805 173.46 77.0195 173.471 75.6016C173.46 74.1719 174.585 73.2109 176.143 73.2109ZM176.143 73.8438C175.006 73.8438 174.186 74.582 174.186 75.6016C174.186 76.6211 175.006 77.3594 176.143 77.3594C177.28 77.3594 178.1 76.6211 178.1 75.6016C178.1 74.582 177.28 73.8438 176.143 73.8438ZM191.437 75.8008V76.4219H184.405V72.9531H185.132V75.8008H191.437ZM192.538 77.9219V78.5312H183.081V77.9219H192.538ZM191.495 82.0234V82.6562H184.358V79.6562H185.085V82.0234H191.495ZM196.582 75.8711C196.582 77.6406 198 79.4336 199.453 80.0664L199.031 80.6523C197.841 80.0957 196.705 78.8594 196.218 77.3828C195.738 78.9355 194.607 80.3066 193.453 80.9102L193.007 80.3242C194.414 79.6328 195.832 77.6641 195.843 75.8711V74.2891H193.324V73.6562H199.136V74.2891H196.582V75.8711ZM201.468 72.5781V82.9141H200.73V72.5781H201.468ZM8.46094 86.5781V89.7656H10.0781V90.3984H8.46094V93.4688H7.72266V86.5781H8.46094ZM0.421875 92.5078C1.27148 92.5078 2.2793 92.5078 3.32812 92.4727V91.6641C2.0918 91.5703 1.30078 91.0078 1.30078 90.1406C1.30078 89.1914 2.25 88.6055 3.69141 88.6172C5.13281 88.6055 6.07031 89.1914 6.08203 90.1406C6.07031 91.002 5.29102 91.5703 4.06641 91.6641V92.4375C5.06836 92.3965 6.08789 92.3145 7.03125 92.168L7.08984 92.7188C4.83984 93.1289 2.34375 93.1406 0.527344 93.1406L0.421875 92.5078ZM8.46094 94.0312V96.9141H7.72266V94.6289H1.6875V94.0312H8.46094ZM6.70312 87.5742V88.1602H0.691406V87.5742H3.32812V86.4961H4.06641V87.5742H6.70312ZM3.69141 89.1562C2.66016 89.1445 2.00391 89.5312 2.00391 90.1406C2.00391 90.7266 2.66016 91.1367 3.69141 91.125C4.71094 91.1367 5.36719 90.7266 5.37891 90.1406C5.36719 89.5312 4.71094 89.1445 3.69141 89.1562ZM18.8442 86.5781V94.1836H18.1059V86.5781H18.8442ZM19.1841 96.0469V96.668H12.2466V93.3984H12.9848V96.0469H19.1841ZM13.2895 87.3281C14.8247 87.3281 15.9614 88.3594 15.9614 89.8359C15.9614 91.3242 14.8247 92.3672 13.2895 92.3555C11.7544 92.3672 10.6059 91.3242 10.6177 89.8359C10.6059 88.3594 11.7544 87.3281 13.2895 87.3281ZM13.2895 87.9727C12.1645 87.9727 11.3325 88.7695 11.3325 89.8359C11.3325 90.9141 12.1645 91.6992 13.2895 91.6992C14.4028 91.6992 15.2466 90.9141 15.2466 89.8359C15.2466 88.7695 14.4028 87.9727 13.2895 87.9727ZM25.4658 88.4297V89.0391H20.2158V88.4297H22.4658V86.8945H23.2158V88.4297H25.4658ZM22.8408 89.8125C24.1298 89.8242 25.0556 90.7734 25.0556 92.1328C25.0556 93.5039 24.1298 94.4648 22.8408 94.4648C21.5517 94.4648 20.6259 93.5039 20.6259 92.1328C20.6259 90.7734 21.5517 89.8242 22.8408 89.8125ZM22.8408 90.4453C21.9384 90.457 21.2822 91.1836 21.2939 92.1328C21.2822 93.0938 21.9384 93.8203 22.8408 93.8086C23.7314 93.8203 24.3877 93.0938 24.3994 92.1328C24.3877 91.1836 23.7314 90.457 22.8408 90.4453ZM29.0048 86.5781V96.9141H28.3017V91.6055H26.7431V96.3867H26.0517V86.8359H26.7431V90.9844H28.3017V86.5781H29.0048ZM39.5991 94.9219V95.5547H30.1303V94.9219H34.4662V92.5898H31.2787V87.3281H32.0287V89.2734H37.6772V87.3281H38.4037V92.5898H35.2045V94.9219H39.5991ZM32.0287 91.9688H37.6772V89.8945H32.0287V91.9688ZM43.4081 89.8711C43.4081 91.5469 44.7206 93.375 46.1503 94.0664L45.7167 94.6523C44.5683 94.0723 43.5195 92.8066 43.0566 91.3711C42.582 92.9238 41.457 94.3066 40.3261 94.9102L39.8691 94.3242C41.2753 93.6211 42.6816 91.6523 42.6933 89.8711V88.2891H40.2323V87.6562H45.8222V88.2891H43.4081V89.8711ZM47.9784 86.5781V90.832H49.7597V91.4648H47.9784V96.9141H47.2402V86.5781H47.9784ZM51.4008 87.5156L51.3422 93.5742H50.557L50.4984 87.5156H51.4008ZM50.9555 96.0586C50.6039 96.0586 50.3227 95.7773 50.3227 95.4375C50.3227 95.0859 50.6039 94.8047 50.9555 94.8047C51.2953 94.8047 51.5766 95.0859 51.5766 95.4375C51.5766 95.7773 51.2953 96.0586 50.9555 96.0586Z" fill="#8E8E8E"/>
<defs>
<linearGradient id="paint0_linear_694_2154" x1="0" y1="30.582" x2="61.1639" y2="30.582" gradientUnits="userSpaceOnUse">
<stop stop-color="#A0E8AF"/>
<stop offset="1" stop-color="#A0E8AF" stop-opacity="0"/>
</linearGradient>
</defs>
</svg>
