<svg width="216" height="62" viewBox="0 0 216 62" fill="none" xmlns="http://www.w3.org/2000/svg">
<path d="M19.1484 16.7188H27.3906L34.6953 34.5312H35.0078L42.3125 16.7188H50.5547V45H44.0703V27.4219H43.8359L36.9609 44.8438H32.7422L25.8672 27.3438H25.6328V45H19.1484V16.7188ZM81.375 30.8594C81.375 40.1953 75.5156 45.3906 67.9375 45.3906C60.3203 45.3906 54.5 40.1562 54.5 30.8594C54.5 21.5234 60.3203 16.3281 67.9375 16.3281C75.5156 16.3281 81.375 21.5234 81.375 30.8594ZM74.5781 30.8594C74.5781 25.2344 72.0781 22.1875 67.9375 22.1875C63.7969 22.1875 61.2969 25.2344 61.2969 30.8594C61.2969 36.4844 63.7969 39.5312 67.9375 39.5312C72.0781 39.5312 74.5781 36.4844 74.5781 30.8594ZM109.305 16.7188V45H103.641L92.1562 28.3984H91.9609V45H85.3203V16.7188H91.0625L102.43 33.3203H102.664V16.7188H109.305Z" fill="#A0E8AF"/>
<path d="M126.727 20.5078C126.688 27.1094 129.227 33.7109 135.594 36.3281L132.273 40.8594C128.25 39.0625 125.555 35.7227 123.953 31.5234C122.371 36.1523 119.559 39.8438 115.203 41.7969L111.844 37.1094C118.406 34.4141 120.984 27.5391 121.023 20.5078V15.5469H126.727V20.5078ZM142.508 12.8906V48.8281H136.844V12.8906H142.508ZM177.117 12.8906V48.8281H171.531V12.8906H177.117ZM165.945 15.8203V29.9609H154.656V35.8984C159.949 35.8594 164.363 35.5859 169.266 34.7656L169.734 39.2969C164.07 40.3125 158.797 40.5469 152.117 40.5469H148.836V25.5469H160.203V20.3125H148.836V15.8203H165.945ZM214.305 40V44.5703H181.531V40H214.305ZM211.414 15.7812V20.2344H200.867C201.062 24.8633 204.812 29.2188 213.211 30.4688L211.023 34.9219C204.598 33.8281 200.184 30.8984 197.898 26.875C195.652 30.9961 191.297 34.0625 184.969 35.1562L182.781 30.625C190.887 29.4141 194.617 24.8633 194.891 20.2344H184.266V15.7812H211.414Z" fill="#1C376B"/>
<circle cx="30.582" cy="30.582" r="30.582" fill="url(#paint0_linear_670_2646)"/>
<defs>
<linearGradient id="paint0_linear_670_2646" x1="0" y1="30.582" x2="61.1639" y2="30.582" gradientUnits="userSpaceOnUse">
<stop stop-color="#A0E8AF"/>
<stop offset="1" stop-color="#A0E8AF" stop-opacity="0"/>
</linearGradient>
</defs>
</svg>
