<svg width="216" height="85" viewBox="0 0 216 85" fill="none" xmlns="http://www.w3.org/2000/svg">
<path d="M19.1484 16.7188H27.3906L34.6953 34.5312H35.0078L42.3125 16.7188H50.5547V45H44.0703V27.4219H43.8359L36.9609 44.8438H32.7422L25.8672 27.3438H25.6328V45H19.1484V16.7188ZM81.375 30.8594C81.375 40.1953 75.5156 45.3906 67.9375 45.3906C60.3203 45.3906 54.5 40.1562 54.5 30.8594C54.5 21.5234 60.3203 16.3281 67.9375 16.3281C75.5156 16.3281 81.375 21.5234 81.375 30.8594ZM74.5781 30.8594C74.5781 25.2344 72.0781 22.1875 67.9375 22.1875C63.7969 22.1875 61.2969 25.2344 61.2969 30.8594C61.2969 36.4844 63.7969 39.5312 67.9375 39.5312C72.0781 39.5312 74.5781 36.4844 74.5781 30.8594ZM109.305 16.7188V45H103.641L92.1562 28.3984H91.9609V45H85.3203V16.7188H91.0625L102.43 33.3203H102.664V16.7188H109.305Z" fill="#A0E8AF"/>
<path d="M126.727 20.5078C126.688 27.1094 129.227 33.7109 135.594 36.3281L132.273 40.8594C128.25 39.0625 125.555 35.7227 123.953 31.5234C122.371 36.1523 119.559 39.8438 115.203 41.7969L111.844 37.1094C118.406 34.4141 120.984 27.5391 121.023 20.5078V15.5469H126.727V20.5078ZM142.508 12.8906V48.8281H136.844V12.8906H142.508ZM177.117 12.8906V48.8281H171.531V12.8906H177.117ZM165.945 15.8203V29.9609H154.656V35.8984C159.949 35.8594 164.363 35.5859 169.266 34.7656L169.734 39.2969C164.07 40.3125 158.797 40.5469 152.117 40.5469H148.836V25.5469H160.203V20.3125H148.836V15.8203H165.945ZM214.305 40V44.5703H181.531V40H214.305ZM211.414 15.7812V20.2344H200.867C201.062 24.8633 204.812 29.2188 213.211 30.4688L211.023 34.9219C204.598 33.8281 200.184 30.8984 197.898 26.875C195.652 30.9961 191.297 34.0625 184.969 35.1562L182.781 30.625C190.887 29.4141 194.617 24.8633 194.891 20.2344H184.266V15.7812H211.414Z" fill="#1C376B"/>
<circle cx="30.582" cy="30.582" r="30.582" fill="url(#paint0_linear_1580_2351)"/>
<path d="M4.01953 75.4961C4.00781 77.3711 5.42578 79.2695 6.87891 79.9492L6.42188 80.5352C5.25586 79.9492 4.14258 78.666 3.65625 77.1367C3.18164 78.7422 2.08008 80.1074 0.902344 80.7227L0.421875 80.1016C1.875 79.4102 3.28125 77.4414 3.28125 75.4961V73.5039H4.01953V75.4961ZM8.94141 72.5781V82.9258H8.20312V72.5781H8.94141ZM18.8442 72.5781V82.9258H18.1177V72.5781H18.8442ZM11.813 79.7617C13.5122 79.7617 15.0942 79.6914 17.0278 79.375L17.0981 80.0078C15.1411 80.3125 13.5591 80.3945 11.813 80.3945H10.9575V76.5273H14.977V74.1953H10.9458V73.5625H15.7153V77.1484H11.7192V79.7617H11.813ZM29.708 80.8633V81.4844H20.2392V80.8633H29.708ZM25.3369 74.9219C25.3369 76.6445 27.622 78.0625 29.2275 78.332L28.9111 78.9297C27.4345 78.6191 25.6181 77.5703 24.9736 76.082C24.3056 77.582 22.5009 78.6426 21.0478 78.9648L20.7314 78.3672C22.3134 78.0859 24.5752 76.6445 24.5752 74.9219V74.2891H21.0244V73.6562H28.8994V74.2891H25.3369V74.9219ZM39.5756 77.4297V78.0273H30.1186V77.4297H39.5756ZM38.3803 78.9648V81.0859H32.0287V82.1992H38.7319V82.7617H31.3022V80.5352H37.642V79.5391H31.2787V78.9648H38.3803ZM38.3452 72.9297V74.9688H32.0873V75.9883H38.5209V76.5508H31.3608V74.4414H37.6069V73.4805H31.3256V72.9297H38.3452ZM51.8578 78.1094V78.7188H42.4242V78.1094H46.7719V76.9492H43.7016V72.8828H50.6625V73.5039H44.4516V74.6055H50.3695V75.1797H44.4516V76.3516H50.7094V76.9492H47.5102V78.1094H51.8578ZM47.1469 79.5977C49.4086 79.5977 50.6859 80.1719 50.6859 81.2383C50.6859 82.3164 49.4086 82.8789 47.1469 82.8789C44.8617 82.8789 43.5844 82.3164 43.5844 81.2383C43.5844 80.1719 44.8617 79.5977 47.1469 79.5977ZM47.1469 80.1719C45.3656 80.1719 44.3227 80.5703 44.3344 81.2383C44.3227 81.9297 45.3656 82.3047 47.1469 82.293C48.9047 82.3047 49.9477 81.9297 49.9477 81.2383C49.9477 80.5703 48.9047 80.1719 47.1469 80.1719ZM57.5536 74.4297V75.0391H52.3036V74.4297H54.5536V72.8945H55.3036V74.4297H57.5536ZM54.9286 75.8125C56.2177 75.8242 57.1434 76.7734 57.1434 78.1328C57.1434 79.5039 56.2177 80.4648 54.9286 80.4648C53.6395 80.4648 52.7137 79.5039 52.7137 78.1328C52.7137 76.7734 53.6395 75.8242 54.9286 75.8125ZM54.9286 76.4453C54.0262 76.457 53.37 77.1836 53.3817 78.1328C53.37 79.0938 54.0262 79.8203 54.9286 79.8086C55.8192 79.8203 56.4755 79.0938 56.4872 78.1328C56.4755 77.1836 55.8192 76.457 54.9286 76.4453ZM61.0927 72.5781V82.9141H60.3895V77.6055H58.8309V82.3867H58.1395V72.8359H58.8309V76.9844H60.3895V72.5781H61.0927ZM73.1522 72.5781V78.8711H72.4139V77.3594H69.5194V76.7266H72.4139V75.1914H69.6483C68.9569 76.873 67.3104 78.1094 65.1014 78.7773L64.785 78.1797C67.3163 77.4121 69.0155 75.9238 69.1913 74.0078H65.3123V73.375H69.9881C69.9881 73.8027 69.9354 74.207 69.8358 74.5938H72.4139V72.5781H73.1522ZM69.7889 78.9648C71.8866 78.9648 73.2108 79.6914 73.2108 80.9102C73.2108 82.1406 71.8866 82.8672 69.7889 82.8672C67.6795 82.8672 66.3553 82.1406 66.3553 80.9102C66.3553 79.6914 67.6795 78.9648 69.7889 78.9648ZM69.7889 79.5742C68.1483 79.5742 67.0819 80.0781 67.0819 80.9102C67.0819 81.7422 68.1483 82.2578 69.7889 82.2578C71.4061 82.2578 72.4725 81.7422 72.4725 80.9102C72.4725 80.0781 71.4061 79.5742 69.7889 79.5742ZM83.3245 72.5781V82.9141H82.6097V72.5781H83.3245ZM81.2386 72.8477V82.3516H80.5355V76.9727H78.6722V76.3516H80.5355V72.8477H81.2386ZM77.4886 75.5664C77.4769 77.3945 78.3792 79.1875 79.7738 79.9961L79.3167 80.5586C78.2738 79.9258 77.4945 78.7539 77.137 77.3594C76.7679 78.8594 75.9652 80.1309 74.8988 80.793L74.43 80.2422C75.8363 79.3984 76.7738 77.5 76.7738 75.5664V74.4648H74.6761V73.8438H79.4808V74.4648H77.4886V75.5664ZM90.427 75.8711C90.427 77.6406 91.845 79.4336 93.2981 80.0664L92.8763 80.6523C91.6868 80.0957 90.5501 78.8594 90.0638 77.3828C89.5833 78.9355 88.4524 80.3066 87.2981 80.9102L86.8528 80.3242C88.2591 79.6328 89.677 77.6641 89.6888 75.8711V74.2891H87.1692V73.6562H92.9817V74.2891H90.427V75.8711ZM95.3138 72.5781V82.9141H94.5755V72.5781H95.3138ZM100.283 74.0781C100.271 75.6602 101.478 77.0312 102.967 77.5703L102.58 78.1562C101.379 77.6934 100.377 76.75 99.9197 75.5312C99.4744 76.832 98.4666 77.8457 97.2595 78.3438L96.8611 77.7578C98.3611 77.1836 99.533 75.7188 99.5447 74.0781V73.082H100.283V74.0781ZM105.217 79.3633V82.9141H104.478V79.9727H98.3142V79.3633H105.217ZM105.217 72.5781V78.8242H104.478V72.5781H105.217ZM111.311 72.7656C113.584 72.7656 114.932 73.3984 114.932 74.5586C114.932 75.7305 113.584 76.375 111.311 76.375C109.037 76.375 107.69 75.7305 107.69 74.5586C107.69 73.3984 109.037 72.7656 111.311 72.7656ZM111.311 73.3398C109.541 73.3398 108.451 73.8086 108.451 74.5586C108.451 75.3438 109.541 75.8008 111.311 75.8008C113.092 75.8008 114.182 75.3438 114.182 74.5586C114.182 73.8086 113.092 73.3398 111.311 73.3398ZM116.033 77.1484V77.7578H106.612V77.1484H116.033ZM114.791 78.7422V80.957H108.522V82.1758H115.119V82.7852H107.807V80.3828H114.076V79.3281H107.772V78.7422H114.791ZM126.921 72.5781V75.7656H128.538V76.3984H126.921V79.4688H126.183V72.5781H126.921ZM118.882 78.5078C119.732 78.5078 120.739 78.5078 121.788 78.4727V77.6641C120.552 77.5703 119.761 77.0078 119.761 76.1406C119.761 75.1914 120.71 74.6055 122.152 74.6172C123.593 74.6055 124.53 75.1914 124.542 76.1406C124.53 77.002 123.751 77.5703 122.527 77.6641V78.4375C123.529 78.3965 124.548 78.3145 125.491 78.168L125.55 78.7188C123.3 79.1289 120.804 79.1406 118.988 79.1406L118.882 78.5078ZM126.921 80.0312V82.9141H126.183V80.6289H120.148V80.0312H126.921ZM125.163 73.5742V74.1602H119.152V73.5742H121.788V72.4961H122.527V73.5742H125.163ZM122.152 75.1562C121.12 75.1445 120.464 75.5312 120.464 76.1406C120.464 76.7266 121.12 77.1367 122.152 77.125C123.171 77.1367 123.827 76.7266 123.839 76.1406C123.827 75.5312 123.171 75.1445 122.152 75.1562ZM132.207 74.5703C132.207 75.9766 133.32 77.1953 134.797 77.6992L134.433 78.2734C133.25 77.8691 132.3 77.0195 131.867 75.9297C131.427 77.1602 130.414 78.1094 129.183 78.5664L128.808 77.9688C130.308 77.4531 131.48 76.1289 131.492 74.582V73.9844H129.054V73.3633H134.609V73.9844H132.207V74.5703ZM136.859 72.5781V75.2969H138.453V75.918H136.859V78.8477H136.121V72.5781H136.859ZM133.566 79.1523C135.675 79.1523 136.941 79.832 136.941 81.0039C136.941 82.1992 135.675 82.8789 133.566 82.8789C131.457 82.8789 130.168 82.1992 130.179 81.0039C130.168 79.832 131.457 79.1523 133.566 79.1523ZM133.566 79.7617C131.937 79.7617 130.894 80.2422 130.906 81.0039C130.894 81.8008 131.937 82.2812 133.566 82.2812C135.195 82.2812 136.226 81.8008 136.226 81.0039C136.226 80.2422 135.195 79.7617 133.566 79.7617ZM142.262 75.4961C142.25 77.3711 143.668 79.2695 145.121 79.9492L144.664 80.5352C143.498 79.9492 142.385 78.666 141.899 77.1367C141.424 78.7422 140.322 80.1074 139.145 80.7227L138.664 80.1016C140.117 79.4102 141.524 77.4414 141.524 75.4961V73.5039H142.262V75.4961ZM147.184 72.5781V82.9258H146.445V72.5781H147.184ZM153.829 73.6797C153.829 74.3066 153.776 74.9277 153.665 75.5312H156.372V72.5547H157.098V82.9023H156.372V78.8828H153.372V78.2734H156.372V76.1523H153.512C152.962 78.1094 151.643 79.873 149.059 81.1562L148.637 80.582C150.612 79.6035 151.837 78.332 152.493 76.8672L148.813 77.207L148.649 76.5508L152.727 76.2695C152.938 75.6484 153.055 74.9863 153.102 74.3008H149.176V73.6797H153.829ZM167.95 80.9219V81.5547H158.482V80.9219H162.818V78.5898H159.63V73.3281H160.38V75.2734H166.028V73.3281H166.755V78.5898H163.556V80.9219H167.95ZM160.38 77.9688H166.028V75.8945H160.38V77.9688ZM171.759 75.8711C171.759 77.5469 173.072 79.375 174.502 80.0664L174.068 80.6523C172.92 80.0723 171.871 78.8066 171.408 77.3711C170.933 78.9238 169.808 80.3066 168.677 80.9102L168.22 80.3242C169.627 79.6211 171.033 77.6523 171.045 75.8711V74.2891H168.584V73.6562H174.173V74.2891H171.759V75.8711ZM176.33 72.5781V76.832H178.111V77.4648H176.33V82.9141H175.591V72.5781H176.33ZM179.752 73.5156L179.693 79.5742H178.908L178.85 73.5156H179.752ZM179.307 82.0586C178.955 82.0586 178.674 81.7773 178.674 81.4375C178.674 81.0859 178.955 80.8047 179.307 80.8047C179.647 80.8047 179.928 81.0859 179.928 81.4375C179.928 81.7773 179.647 82.0586 179.307 82.0586Z" fill="#8E8E8E"/>
<defs>
<linearGradient id="paint0_linear_1580_2351" x1="0" y1="30.582" x2="61.1639" y2="30.582" gradientUnits="userSpaceOnUse">
<stop stop-color="#A0E8AF"/>
<stop offset="1" stop-color="#A0E8AF" stop-opacity="0"/>
</linearGradient>
</defs>
</svg>
