<svg width="181" height="62" viewBox="0 0 181 62" fill="none" xmlns="http://www.w3.org/2000/svg">
<path d="M19.1484 16.7188H27.3906L34.6953 34.5312H35.0078L42.3125 16.7188H50.5547V45H44.0703V27.4219H43.8359L36.9609 44.8438H32.7422L25.8672 27.3438H25.6328V45H19.1484V16.7188ZM81.375 30.8594C81.375 40.1953 75.5156 45.3906 67.9375 45.3906C60.3203 45.3906 54.5 40.1562 54.5 30.8594C54.5 21.5234 60.3203 16.3281 67.9375 16.3281C75.5156 16.3281 81.375 21.5234 81.375 30.8594ZM74.5781 30.8594C74.5781 25.2344 72.0781 22.1875 67.9375 22.1875C63.7969 22.1875 61.2969 25.2344 61.2969 30.8594C61.2969 36.4844 63.7969 39.5312 67.9375 39.5312C72.0781 39.5312 74.5781 36.4844 74.5781 30.8594ZM109.305 16.7188V45H103.641L92.1562 28.3984H91.9609V45H85.3203V16.7188H91.0625L102.43 33.3203H102.664V16.7188H109.305Z" fill="#A0E8AF"/>
<path d="M140.945 12.9297V22.4219H145.633V27.0312H140.945V38.8281H135.32V12.9297H140.945ZM129.891 15.7031V20.1562H119.305V28.5547C125.555 28.4961 128.953 28.2617 132.703 27.4609L133.289 31.9531C128.953 32.8516 124.852 33.0469 116.766 33.0469H113.68V15.7031H129.891ZM142.117 43.6719V48.1641H117.43V35.9766H123.055V43.6719H142.117ZM156.922 15.3516C161.746 15.3516 165.398 19.2578 166.141 25.625H171.805V12.8906H177.352V48.8281H171.805V30.0781H166.219C165.633 36.9141 161.902 41.0938 156.922 41.0938C151.414 41.0938 147.469 36.1328 147.508 28.1641C147.469 20.3125 151.414 15.3516 156.922 15.3516ZM156.922 20.4297C154.539 20.4297 152.859 23.0469 152.898 28.1641C152.859 33.3594 154.539 35.9766 156.922 35.9766C159.383 35.9766 160.945 33.3594 160.945 28.1641C160.945 23.0469 159.383 20.4297 156.922 20.4297Z" fill="white"/>
<circle cx="30.582" cy="30.582" r="30.582" fill="url(#paint0_linear_670_2614)"/>
<defs>
<linearGradient id="paint0_linear_670_2614" x1="0" y1="30.582" x2="61.1639" y2="30.582" gradientUnits="userSpaceOnUse">
<stop stop-color="#A0E8AF"/>
<stop offset="1" stop-color="#A0E8AF" stop-opacity="0"/>
</linearGradient>
</defs>
</svg>
