<svg width="227" height="85" viewBox="0 0 227 85" fill="none" xmlns="http://www.w3.org/2000/svg">
<path d="M19.1484 16.7188H27.3906L34.6953 34.5312H35.0078L42.3125 16.7188H50.5547V45H44.0703V27.4219H43.8359L36.9609 44.8438H32.7422L25.8672 27.3438H25.6328V45H19.1484V16.7188ZM81.375 30.8594C81.375 40.1953 75.5156 45.3906 67.9375 45.3906C60.3203 45.3906 54.5 40.1562 54.5 30.8594C54.5 21.5234 60.3203 16.3281 67.9375 16.3281C75.5156 16.3281 81.375 21.5234 81.375 30.8594ZM74.5781 30.8594C74.5781 25.2344 72.0781 22.1875 67.9375 22.1875C63.7969 22.1875 61.2969 25.2344 61.2969 30.8594C61.2969 36.4844 63.7969 39.5312 67.9375 39.5312C72.0781 39.5312 74.5781 36.4844 74.5781 30.8594ZM109.305 16.7188V45H103.641L92.1562 28.3984H91.9609V45H85.3203V16.7188H91.0625L102.43 33.3203H102.664V16.7188H109.305Z" fill="#A0E8AF"/>
<path d="M140.945 12.9297V22.4219H145.633V27.0312H140.945V38.8281H135.32V12.9297H140.945ZM129.891 15.7031V20.1562H119.305V28.5547C125.555 28.4961 128.953 28.2617 132.703 27.4609L133.289 31.9531C128.953 32.8516 124.852 33.0469 116.766 33.0469H113.68V15.7031H129.891ZM142.117 43.6719V48.1641H117.43V35.9766H123.055V43.6719H142.117ZM156.922 15.3516C161.746 15.3516 165.398 19.2578 166.141 25.625H171.805V12.8906H177.352V48.8281H171.805V30.0781H166.219C165.633 36.9141 161.902 41.0938 156.922 41.0938C151.414 41.0938 147.469 36.1328 147.508 28.1641C147.469 20.3125 151.414 15.3516 156.922 15.3516ZM156.922 20.4297C154.539 20.4297 152.859 23.0469 152.898 28.1641C152.859 33.3594 154.539 35.9766 156.922 35.9766C159.383 35.9766 160.945 33.3594 160.945 28.1641C160.945 23.0469 159.383 20.4297 156.922 20.4297Z" fill="#1C376B"/>
<circle cx="30.582" cy="30.582" r="30.582" fill="url(#paint0_linear_670_2964)"/>
<path d="M5.15625 73.3047C7.34766 73.3047 8.90625 74.3594 8.90625 75.9648C8.90625 77.4883 7.52344 78.4902 5.53125 78.6016V80.9102H9.92578V81.543H0.457031V80.9102H4.79297V78.6016C2.80664 78.4961 1.41797 77.4883 1.41797 75.9648C1.41797 74.3594 2.97656 73.3047 5.15625 73.3047ZM5.15625 73.9141C3.41016 73.9141 2.12109 74.7461 2.12109 75.9648C2.12109 77.1836 3.41016 78.0156 5.15625 78.0156C6.90234 78.0156 8.20312 77.1836 8.20312 75.9648C8.20312 74.7461 6.90234 73.9141 5.15625 73.9141ZM18.6802 75.1914V75.8125H11.6606V72.7539H12.3755V75.1914H18.6802ZM19.7934 76.9375V77.5586H10.3364V76.9375H19.7934ZM18.563 78.5898V80.8984H12.3169V82.1641H18.938V82.7617H11.5786V80.3242H17.8364V79.1875H11.5552V78.5898H18.563ZM23.6259 73.3516C25.2548 73.3516 26.3798 74.3242 26.3916 75.7422C26.3798 77.1719 25.2548 78.1328 23.6259 78.1328C22.0088 78.1328 20.8603 77.1719 20.8603 75.7422C20.8603 74.3242 22.0088 73.3516 23.6259 73.3516ZM23.6259 74.0078C22.4423 74.0078 21.5752 74.7344 21.5869 75.7422C21.5752 76.75 22.4423 77.4883 23.6259 77.4766C24.8095 77.4883 25.665 76.75 25.665 75.7422C25.665 74.7344 24.8095 74.0078 23.6259 74.0078ZM28.6533 72.5781V82.9258H27.915V72.5781H28.6533ZM20.2978 79.9375C22.2314 79.9492 24.8798 79.9375 27.2002 79.5859L27.2588 80.1484C24.8681 80.5938 22.29 80.5938 20.415 80.5938L20.2978 79.9375ZM33.0956 73.5156H34.0683L37.1034 80.8047H37.1855L40.2089 73.5156H41.1933V82H40.3964V75.2383H40.3261L37.5136 82H36.7636L33.9511 75.2383H33.8808V82H33.0956V73.5156ZM49.725 77.7578C49.725 80.418 48.1898 82.1172 46.0453 82.1172C43.8891 82.1172 42.3539 80.418 42.3539 77.7578C42.3539 75.0977 43.8891 73.3984 46.0453 73.3984C48.1898 73.3984 49.725 75.0977 49.725 77.7578ZM48.9164 77.7578C48.9164 75.4961 47.6859 74.1836 46.0453 74.1836C44.4047 74.1836 43.1742 75.4961 43.1742 77.7578C43.1742 80.0078 44.393 81.332 46.0453 81.332C47.6859 81.332 48.9164 80.0195 48.9164 77.7578ZM57.5302 73.5156V82H56.7333L51.7997 75.0039H51.7294V82H50.8973V73.5156H51.7059L56.6395 80.5234H56.7098V73.5156H57.5302ZM66.8119 76.1523V76.7734H59.7337V73.1172H60.4837V76.1523H66.8119ZM67.9369 78.3789V79H65.3822V82.9141H64.6439V79H61.7962V82.9141H61.058V79H58.515V78.3789H67.9369ZM73.4686 74.1484C73.4686 76 75.7186 77.5703 77.3475 77.875L76.9842 78.5078C75.5252 78.1445 73.7498 77.0137 73.0936 75.4258C72.4373 77.0137 70.662 78.1445 69.203 78.5078L68.8514 77.875C70.4803 77.5586 72.6952 76.0117 72.7069 74.1484V73.3281H73.4686V74.1484ZM77.8748 80.8398V81.4609H68.4061V80.8398H77.8748ZM87.1214 72.5781V82.9141H86.4066V72.5781H87.1214ZM85.0706 72.8125V82.375H84.3558V77.3008H82.8675C82.7796 79.3047 81.9183 80.5703 80.6409 80.5703C79.305 80.5703 78.4378 79.1875 78.4378 77.0312C78.4378 74.8633 79.305 73.4922 80.6409 73.4922C81.9007 73.4922 82.7562 74.7109 82.8558 76.668H84.3558V72.8125H85.0706ZM80.6409 74.1836C79.7269 74.1836 79.1292 75.3203 79.1409 77.0312C79.1292 78.7305 79.7269 79.8789 80.6409 79.8789C81.5667 79.8789 82.1644 78.7305 82.1644 77.0312C82.1644 75.3203 81.5667 74.1836 80.6409 74.1836ZM100.306 76.7734V77.4062H98.5598V82.9141H97.8216V72.5781H98.5598V76.7734H100.306ZM91.7864 73.5977V79.6211H91.8567C93.4153 79.6328 94.9739 79.5156 96.7317 79.1406L96.8255 79.7852C95.0325 80.1484 93.4505 80.2539 91.8567 80.2539H91.0598V73.5977H91.7864ZM105.193 73.3047C107.385 73.3047 108.943 74.3594 108.943 75.9648C108.943 77.4883 107.56 78.4902 105.568 78.6016V80.9102H109.963V81.543H100.494V80.9102H104.83V78.6016C102.844 78.4961 101.455 77.4883 101.455 75.9648C101.455 74.3594 103.013 73.3047 105.193 73.3047ZM105.193 73.9141C103.447 73.9141 102.158 74.7461 102.158 75.9648C102.158 77.1836 103.447 78.0156 105.193 78.0156C106.939 78.0156 108.24 77.1836 108.24 75.9648C108.24 74.7461 106.939 73.9141 105.193 73.9141ZM118.729 75.8008V76.4219H111.698V72.9531H112.424V75.8008H118.729ZM119.83 77.9219V78.5312H110.373V77.9219H119.83ZM118.787 82.0234V82.6562H111.651V79.6562H112.377V82.0234H118.787ZM130.741 72.5664V75.7305H132.347V76.3516H130.741V80.0664H130.003V72.5664H130.741ZM123.991 77.5469C126.089 77.5469 127.32 77.4883 128.773 77.1953L128.878 77.8164C127.366 78.1094 126.113 78.1914 123.991 78.1797H123.206V73.4922H127.788V74.1133H123.945V77.5469H123.991ZM131.245 82.0469V82.668H124.343V79.3164H125.07V82.0469H131.245ZM135.336 73.3984C136.748 73.3984 137.756 74.6348 137.879 76.5977H140.375V72.5781H141.101V82.9258H140.375V77.207H137.89C137.802 79.252 136.783 80.5469 135.336 80.5469C133.824 80.5469 132.769 79.1523 132.781 76.9727C132.769 74.793 133.824 73.3984 135.336 73.3984ZM135.336 74.0547C134.234 74.0547 133.484 75.25 133.484 76.9727C133.484 78.707 134.234 79.8906 135.336 79.8906C136.425 79.8906 137.187 78.707 137.187 76.9727C137.187 75.25 136.425 74.0547 135.336 74.0547ZM151.895 77.0078V77.6289H142.473V77.0078H151.895ZM150.77 75.4609V76.082H143.762V72.9766H150.652V73.5859H144.5V75.4609H150.77ZM150.652 78.6484V80.957H144.383V82.1641H150.981V82.7734H143.668V80.3711H149.938V79.2461H143.633V78.6484H150.652ZM157.063 72.7656C159.337 72.7656 160.684 73.3984 160.684 74.5586C160.684 75.7305 159.337 76.375 157.063 76.375C154.79 76.375 153.442 75.7305 153.442 74.5586C153.442 73.3984 154.79 72.7656 157.063 72.7656ZM157.063 73.3398C155.294 73.3398 154.204 73.8086 154.204 74.5586C154.204 75.3438 155.294 75.8008 157.063 75.8008C158.844 75.8008 159.934 75.3438 159.934 74.5586C159.934 73.8086 158.844 73.3398 157.063 73.3398ZM161.786 77.1484V77.7578H152.364V77.1484H161.786ZM160.544 78.7422V80.957H154.274V82.1758H160.872V82.7852H153.559V80.3828H159.829V79.3281H153.524V78.7422H160.544ZM169.345 79.1289C171.548 79.1289 172.955 79.832 172.966 81.0156C172.955 82.1875 171.548 82.8789 169.345 82.8789C167.142 82.8789 165.748 82.1875 165.748 81.0156C165.748 79.832 167.142 79.1289 169.345 79.1289ZM169.345 79.7148C167.623 79.7148 166.474 80.2188 166.486 81.0156C166.474 81.7891 167.623 82.2812 169.345 82.2812C171.068 82.2812 172.216 81.7891 172.216 81.0156C172.216 80.2188 171.068 79.7148 169.345 79.7148ZM172.861 73.1172V74.0078C172.861 74.8516 172.861 75.6719 172.58 76.7383L171.853 76.6562C172.134 75.5898 172.134 74.8164 172.134 74.0078V73.7383H165.806V73.1172H172.861ZM174.091 77.4648V78.0742H164.67V77.4648H168.689V75.4023H169.416V77.4648H174.091ZM184.006 78.7656V79.375H179.611V82.9141H178.897V79.375H174.549V78.7656H184.006ZM176.529 73.0117V74.5234H182.025V73.0117H182.764V77.4297H175.791V73.0117H176.529ZM176.529 76.8203H182.025V75.1328H176.529V76.8203ZM189.678 74.4297V75.0391H184.428V74.4297H186.678V72.8945H187.428V74.4297H189.678ZM187.053 75.8125C188.342 75.8242 189.268 76.7734 189.268 78.1328C189.268 79.5039 188.342 80.4648 187.053 80.4648C185.764 80.4648 184.838 79.5039 184.838 78.1328C184.838 76.7734 185.764 75.8242 187.053 75.8125ZM187.053 76.4453C186.151 76.457 185.495 77.1836 185.506 78.1328C185.495 79.0938 186.151 79.8203 187.053 79.8086C187.944 79.8203 188.6 79.0938 188.612 78.1328C188.6 77.1836 187.944 76.457 187.053 76.4453ZM193.217 72.5781V82.9141H192.514V77.6055H190.956V82.3867H190.264V72.8359H190.956V76.9844H192.514V72.5781H193.217ZM203.812 80.9219V81.5547H194.343V80.9219H198.679V78.5898H195.491V73.3281H196.241V75.2734H201.89V73.3281H202.616V78.5898H199.417V80.9219H203.812ZM196.241 77.9688H201.89V75.8945H196.241V77.9688ZM206.988 73.3984C208.5 73.3984 209.566 74.793 209.566 76.9727C209.566 79.1523 208.5 80.5469 206.988 80.5469C205.476 80.5469 204.421 79.1523 204.433 76.9727C204.421 74.793 205.476 73.3984 206.988 73.3984ZM206.988 74.0547C205.898 74.0547 205.125 75.25 205.125 76.9727C205.125 78.707 205.898 79.8906 206.988 79.8906C208.101 79.8906 208.851 78.707 208.863 76.9727C208.851 75.25 208.101 74.0547 206.988 74.0547ZM212.191 72.5781V76.7852H213.972V77.418H212.191V82.9141H211.453V72.5781H212.191ZM223.594 80.9102V81.543H214.125V80.9102H216.539V78.0391C215.631 77.582 215.086 76.8379 215.086 75.9062C215.086 74.3125 216.633 73.2812 218.824 73.2695C221.027 73.2812 222.574 74.3125 222.574 75.9062C222.574 76.8262 222.041 77.5645 221.156 78.0156V80.9102H223.594ZM218.824 73.8906C217.066 73.8789 215.789 74.6992 215.789 75.9062C215.789 77.0898 217.066 77.9219 218.824 77.9102C220.582 77.9219 221.871 77.0898 221.871 75.9062C221.871 74.6992 220.582 73.8789 218.824 73.8906ZM217.266 80.9102H220.418V78.2969C219.943 78.4375 219.404 78.5078 218.824 78.5078C218.256 78.5078 217.729 78.4375 217.266 78.3086V80.9102ZM225.504 73.5156L225.446 79.5742H224.661L224.602 73.5156H225.504ZM225.059 82.0586C224.708 82.0586 224.426 81.7773 224.426 81.4375C224.426 81.0859 224.708 80.8047 225.059 80.8047C225.399 80.8047 225.68 81.0859 225.68 81.4375C225.68 81.7773 225.399 82.0586 225.059 82.0586Z" fill="#8E8E8E"/>
<defs>
<linearGradient id="paint0_linear_670_2964" x1="0" y1="30.582" x2="61.1639" y2="30.582" gradientUnits="userSpaceOnUse">
<stop stop-color="#A0E8AF"/>
<stop offset="1" stop-color="#A0E8AF" stop-opacity="0"/>
</linearGradient>
</defs>
</svg>
