<svg width="30" height="30" viewBox="0 0 30 30" fill="none" xmlns="http://www.w3.org/2000/svg">
<circle cx="15" cy="15" r="15" fill="#A0E8AF" fill-opacity="0.3"/>
<path d="M20.5905 11.5286L18.4903 9.42702C17.0545 7.9891 16.337 7.27156 15.5656 7.44156C14.7942 7.61156 14.4457 8.56569 13.7466 10.4732L13.2734 11.7645C13.0872 12.2731 12.9937 12.5274 12.8258 12.7243C12.7507 12.8129 12.6651 12.8918 12.5708 12.9595C12.3611 13.1104 12.1004 13.1819 11.5791 13.3257C10.4033 13.6501 9.81466 13.8123 9.59295 14.1969C9.49711 14.3634 9.44724 14.5524 9.44845 14.7445C9.45128 15.1886 9.88266 15.62 10.7447 16.4834L11.7477 17.4864L8.5772 20.6598C8.48059 20.7622 8.42769 20.8982 8.42975 21.039C8.4318 21.1798 8.48863 21.3142 8.58819 21.4138C8.68775 21.5133 8.82219 21.5702 8.96297 21.5722C9.10375 21.5743 9.23978 21.5214 9.3422 21.4248L12.512 18.2514L13.5504 19.2913C14.4188 20.1597 14.853 20.5946 15.3 20.5946C15.4877 20.5946 15.6726 20.5464 15.8362 20.4529C16.2244 20.2312 16.3873 19.6391 16.7138 18.454C16.8569 17.9334 16.9284 17.6734 17.0786 17.4631C17.1447 17.3715 17.2208 17.2883 17.3067 17.2137C17.5015 17.0451 17.7544 16.9502 18.2594 16.7604L19.5656 16.2695C21.4526 15.5612 22.3961 15.2063 22.5618 14.4378C22.7283 13.6685 22.0164 12.9552 20.5905 11.5286Z" fill="#A0E8AF"/>
</svg>
