<svg width="30" height="30" viewBox="0 0 30 30" fill="none" xmlns="http://www.w3.org/2000/svg">
<circle cx="15" cy="15" r="15" fill="#FFF7D9"/>
<path fill-rule="evenodd" clip-rule="evenodd" d="M14.517 7.771C14.6135 7.771 14.6875 7.85653 14.6747 7.95216C14.4562 9.58875 14.4833 11.2498 14.7558 12.8803L14.7674 12.9495C14.7809 13.03 14.8424 13.094 14.9223 13.1106C15.0022 13.1272 15.0842 13.0931 15.1286 13.0246L16.4141 11.0444C16.4453 10.9963 16.5157 10.9963 16.5469 11.0444L17.8323 13.0246C17.8768 13.0931 17.9587 13.1272 18.0386 13.1106C18.1186 13.094 18.1801 13.03 18.1935 12.9495L18.2051 12.8803C18.4777 11.2498 18.5047 9.58875 18.2862 7.95216C18.2735 7.85653 18.3475 7.771 18.4439 7.771L19.6471 7.771C20.303 7.771 20.8346 8.30266 20.8346 8.9585V20.8335C20.8346 21.2707 20.4802 21.6252 20.043 21.6252H10.9388C9.54291 21.6252 8.3881 20.5929 8.19603 19.2502H8.16797V11.3335C8.16797 9.36598 9.76295 7.771 11.7305 7.771L14.517 7.771ZM10.9388 17.271H19.6471V20.4377H10.9388C10.0644 20.4377 9.35547 19.7288 9.35547 18.8543C9.35547 17.9799 10.0644 17.271 10.9388 17.271Z" fill="#FDE68A"/>
</svg>
