<svg width="17" height="17" viewBox="0 0 17 17" fill="none" xmlns="http://www.w3.org/2000/svg">
<path d="M6.12207 6.06135C6.2644 5.62277 6.52513 5.23247 6.87565 4.9329C7.22618 4.63334 7.65316 4.43648 8.10856 4.36423C8.56396 4.29198 9.03018 4.347 9.45622 4.52336C9.88225 4.69971 10.2512 4.99062 10.5223 5.36361C10.7934 5.73659 10.9557 6.17713 10.992 6.6368C11.0282 7.09647 10.9365 7.55732 10.7272 7.96818C10.5179 8.37904 10.1995 8.72374 9.80634 8.96468C9.4132 9.20562 8.96109 9.33314 8.5 9.33314V10.1669M8.5 16C4.35786 16 1 12.6421 1 8.5C1 4.35786 4.35786 1 8.5 1C12.6421 1 16 4.35786 16 8.5C16 12.6421 12.6421 16 8.5 16ZM8.5415 12.6667V12.75L8.4585 12.7502V12.6667H8.5415Z" stroke="#8E8E8E" stroke-width="1.5" stroke-linecap="round" stroke-linejoin="round"/>
</svg>
