<svg width="1133" height="744" viewBox="0 0 1133 744" fill="none" xmlns="http://www.w3.org/2000/svg">
<g clip-path="url(#clip0_2749_2168)">
<rect width="744" height="1133" transform="matrix(0 1 -1 0 1133 0)" fill="#1C376B"/>
<path d="M572.213 161.384H577.097V169.487H572.213V161.384ZM574.618 146.029C576.369 146.029 577.948 146.387 579.354 147.102C580.76 147.817 581.87 148.816 582.684 150.099C583.498 151.357 583.905 152.8 583.905 154.428C583.905 156.056 583.498 157.511 582.684 158.794C581.87 160.077 580.76 161.076 579.354 161.791C577.948 162.506 576.369 162.864 574.618 162.864C572.842 162.864 571.251 162.506 569.845 161.791C568.439 161.076 567.329 160.077 566.515 158.794C565.701 157.511 565.294 156.056 565.294 154.428C565.294 152.8 565.701 151.357 566.515 150.099C567.329 148.816 568.439 147.817 569.845 147.102C571.251 146.387 572.842 146.029 574.618 146.029ZM574.618 150.21C573.73 150.21 572.941 150.383 572.25 150.728C571.584 151.049 571.054 151.53 570.659 152.171C570.264 152.788 570.067 153.54 570.067 154.428C570.067 155.341 570.264 156.118 570.659 156.759C571.054 157.376 571.584 157.857 572.25 158.202C572.941 158.523 573.73 158.683 574.618 158.683C575.481 158.683 576.246 158.523 576.912 158.202C577.603 157.857 578.145 157.376 578.54 156.759C578.935 156.118 579.132 155.341 579.132 154.428C579.132 153.54 578.935 152.788 578.54 152.171C578.145 151.53 577.603 151.049 576.912 150.728C576.246 150.383 575.481 150.21 574.618 150.21ZM586.643 143.994H591.564V178.256H586.643V143.994ZM590.047 157.425H596.078V161.495H590.047V157.425ZM564.739 171.448L564.147 167.489C566.12 167.489 568.279 167.477 570.622 167.452C572.965 167.427 575.358 167.353 577.8 167.23C580.242 167.107 582.598 166.897 584.867 166.601L585.237 170.153C582.869 170.597 580.464 170.918 578.022 171.115C575.605 171.288 573.261 171.386 570.992 171.411C568.747 171.436 566.663 171.448 564.739 171.448ZM631.662 144.031H636.583V164.64H631.662V144.031ZM635.251 152.467H641.134V156.5H635.251V152.467ZM614.309 166.157H636.583V177.923H614.309V166.157ZM631.773 170.005H619.156V174.038H631.773V170.005ZM609.647 147.065H629.775V150.95H609.647V147.065ZM619.711 151.986C621.388 151.986 622.856 152.245 624.114 152.763C625.372 153.281 626.359 154.009 627.074 154.946C627.789 155.859 628.147 156.932 628.147 158.165C628.147 159.374 627.789 160.447 627.074 161.384C626.359 162.297 625.372 163.012 624.114 163.53C622.856 164.048 621.388 164.307 619.711 164.307C618.058 164.307 616.591 164.048 615.308 163.53C614.05 163.012 613.063 162.297 612.348 161.384C611.633 160.447 611.275 159.374 611.275 158.165C611.275 156.932 611.633 155.859 612.348 154.946C613.063 154.009 614.05 153.281 615.308 152.763C616.591 152.245 618.058 151.986 619.711 151.986ZM619.711 155.612C618.626 155.612 617.738 155.834 617.047 156.278C616.356 156.697 616.011 157.326 616.011 158.165C616.011 159.004 616.356 159.645 617.047 160.089C617.738 160.508 618.626 160.718 619.711 160.718C620.821 160.718 621.709 160.508 622.375 160.089C623.066 159.645 623.411 159.004 623.411 158.165C623.411 157.326 623.066 156.697 622.375 156.278C621.709 155.834 620.821 155.612 619.711 155.612ZM617.269 143.772H622.153V149.174H617.269V143.772ZM647.865 147.879H652.009C652.009 150.05 651.935 152.171 651.787 154.243C651.664 156.29 651.417 158.276 651.047 160.2C650.677 162.124 650.159 163.986 649.493 165.787C648.852 167.588 648.001 169.351 646.94 171.078L643.129 169.006C644.14 167.427 644.954 165.861 645.571 164.307C646.188 162.728 646.656 161.113 646.977 159.46C647.322 157.807 647.557 156.068 647.68 154.243C647.803 152.393 647.865 150.407 647.865 148.286V147.879ZM644.276 147.879H650.492V151.838H644.276V147.879ZM655.487 147.879H659.631C659.631 150.124 659.569 152.331 659.446 154.502C659.347 156.673 659.125 158.806 658.78 160.903C658.459 163 657.954 165.035 657.263 167.008C656.597 168.981 655.684 170.893 654.525 172.743L650.788 170.634C651.651 169.277 652.367 167.908 652.934 166.527C653.526 165.146 653.995 163.74 654.34 162.309C654.685 160.878 654.932 159.423 655.08 157.943C655.253 156.438 655.364 154.897 655.413 153.318C655.462 151.715 655.487 150.062 655.487 148.36V147.879ZM653.008 147.879H658.299V151.838H653.008V147.879ZM668.733 144.031H673.395V178.293H668.733V144.031ZM657.966 156.87H662.85V160.792H657.966V156.87ZM662.073 144.734H666.698V176.739H662.073V144.734ZM697.065 157.906H701.986V163.863H697.065V157.906ZM712.716 143.994H717.637V163.826H712.716V143.994ZM689.332 159.46L688.814 156.056C691.009 156.056 693.34 156.044 695.807 156.019C698.274 155.994 700.777 155.933 703.318 155.834C705.859 155.735 708.325 155.575 710.718 155.353L710.977 158.387C708.51 158.732 706.019 158.979 703.503 159.127C700.987 159.275 698.533 159.374 696.14 159.423C693.747 159.448 691.478 159.46 689.332 159.46ZM693.698 164.899H717.637V172.928H698.619V175.629H693.735V169.82H712.79V168.229H693.698V164.899ZM693.735 174.667H718.451V178.071H693.735V174.667ZM706.685 159.867H714.233V162.827H706.685V159.867ZM699.692 144.512C701.394 144.512 702.886 144.722 704.169 145.141C705.452 145.56 706.451 146.152 707.166 146.917C707.881 147.682 708.239 148.594 708.239 149.655C708.239 150.691 707.881 151.591 707.166 152.356C706.451 153.121 705.452 153.713 704.169 154.132C702.886 154.551 701.394 154.761 699.692 154.761C697.99 154.761 696.485 154.551 695.178 154.132C693.895 153.713 692.896 153.121 692.181 152.356C691.466 151.591 691.108 150.691 691.108 149.655C691.108 148.594 691.466 147.682 692.181 146.917C692.896 146.152 693.895 145.56 695.178 145.141C696.485 144.722 697.99 144.512 699.692 144.512ZM699.692 147.731C698.483 147.731 697.509 147.891 696.769 148.212C696.054 148.533 695.696 149.014 695.696 149.655C695.696 150.272 696.054 150.74 696.769 151.061C697.509 151.382 698.483 151.542 699.692 151.542C700.925 151.542 701.887 151.382 702.578 151.061C703.293 150.74 703.651 150.272 703.651 149.655C703.651 149.014 703.293 148.533 702.578 148.212C701.887 147.891 700.925 147.731 699.692 147.731ZM729.659 161.421H734.58V171.004H729.659V161.421ZM742.091 161.421H747.012V171.004H742.091V161.421ZM722.851 170.301H753.894V174.297H722.851V170.301ZM738.317 145.696C740.784 145.696 742.979 146.078 744.903 146.843C746.852 147.608 748.369 148.681 749.454 150.062C750.564 151.419 751.119 153.034 751.119 154.909C751.119 156.759 750.564 158.375 749.454 159.756C748.369 161.113 746.852 162.173 744.903 162.938C742.979 163.703 740.784 164.085 738.317 164.085C735.875 164.085 733.68 163.703 731.731 162.938C729.807 162.173 728.29 161.113 727.18 159.756C726.07 158.375 725.515 156.759 725.515 154.909C725.515 153.034 726.07 151.419 727.18 150.062C728.29 148.681 729.807 147.608 731.731 146.843C733.68 146.078 735.875 145.696 738.317 145.696ZM738.317 149.507C736.738 149.507 735.345 149.729 734.136 150.173C732.952 150.592 732.027 151.197 731.361 151.986C730.695 152.775 730.362 153.75 730.362 154.909C730.362 156.019 730.695 156.981 731.361 157.795C732.027 158.584 732.952 159.201 734.136 159.645C735.345 160.064 736.738 160.274 738.317 160.274C739.92 160.274 741.314 160.064 742.498 159.645C743.707 159.201 744.632 158.584 745.273 157.795C745.939 156.981 746.272 156.019 746.272 154.909C746.272 153.75 745.939 152.775 745.273 151.986C744.632 151.197 743.707 150.592 742.498 150.173C741.314 149.729 739.92 149.507 738.317 149.507ZM766.508 144.993C768.284 144.993 769.85 145.338 771.207 146.029C772.588 146.695 773.674 147.62 774.463 148.804C775.277 149.963 775.684 151.308 775.684 152.837C775.684 154.366 775.277 155.723 774.463 156.907C773.674 158.066 772.588 158.979 771.207 159.645C769.85 160.311 768.284 160.644 766.508 160.644C764.781 160.644 763.227 160.311 761.846 159.645C760.465 158.979 759.367 158.066 758.553 156.907C757.764 155.723 757.369 154.366 757.369 152.837C757.369 151.308 757.764 149.951 758.553 148.767C759.367 147.583 760.465 146.658 761.846 145.992C763.227 145.326 764.781 144.993 766.508 144.993ZM766.545 148.989C765.706 148.989 764.954 149.149 764.288 149.47C763.622 149.766 763.092 150.198 762.697 150.765C762.327 151.332 762.142 152.023 762.142 152.837C762.142 153.651 762.327 154.354 762.697 154.946C763.092 155.513 763.61 155.945 764.251 156.241C764.917 156.537 765.682 156.685 766.545 156.685C767.384 156.685 768.124 156.537 768.765 156.241C769.431 155.945 769.949 155.513 770.319 154.946C770.714 154.354 770.911 153.651 770.911 152.837C770.911 152.023 770.714 151.332 770.319 150.765C769.949 150.198 769.431 149.766 768.765 149.47C768.099 149.149 767.359 148.989 766.545 148.989ZM780.42 144.031H785.341V161.162H780.42V144.031ZM762.512 162.568H785.341V171.929H767.396V176.11H762.549V168.377H780.457V166.342H762.512V162.568ZM762.549 174.075H786.192V177.923H762.549V174.075ZM790.925 163.715H821.931V167.6H790.925V163.715ZM803.838 165.676H808.759V178.293H803.838V165.676ZM794.44 145.326H799.324V149.211H813.421V145.326H818.268V160.459H794.44V145.326ZM799.324 153.059V156.574H813.421V153.059H799.324ZM848.79 143.957H853.711V178.33H848.79V143.957ZM842.907 156.056H849.382V160.052H842.907V156.056ZM826.479 166.638H829.254C831.154 166.638 832.905 166.613 834.508 166.564C836.136 166.515 837.715 166.428 839.244 166.305C840.774 166.182 842.34 166.009 843.943 165.787L844.424 169.672C842.772 169.943 841.144 170.141 839.54 170.264C837.962 170.387 836.334 170.474 834.656 170.523C832.979 170.572 831.178 170.597 829.254 170.597H826.479V166.638ZM826.479 146.843H842.352V150.839H831.4V167.859H826.479V146.843ZM830.253 156.389H841.205V160.237H830.253V156.389Z" fill="white"/>
<path d="M223.273 203.433H231.302V207.318H223.273V203.433ZM222.977 210.5H231.043V214.459H222.977V210.5ZM230.488 197.994H235.446V217.715H230.488V197.994ZM219.351 200.325H224.568C224.568 203.433 223.989 206.183 222.829 208.576C221.67 210.944 219.931 212.954 217.612 214.607C215.294 216.235 212.395 217.53 208.917 218.492L207.03 214.644C209.941 213.879 212.297 212.917 214.097 211.758C215.898 210.574 217.218 209.217 218.056 207.688C218.92 206.159 219.351 204.506 219.351 202.73V200.325ZM208.88 200.325H222.792V204.247H208.88V200.325ZM224.087 218.159C226.406 218.159 228.429 218.443 230.155 219.01C231.907 219.577 233.251 220.379 234.188 221.415C235.15 222.451 235.631 223.684 235.631 225.115C235.631 226.546 235.15 227.779 234.188 228.815C233.251 229.851 231.907 230.653 230.155 231.22C228.429 231.812 226.406 232.108 224.087 232.108C221.769 232.108 219.734 231.812 217.982 231.22C216.256 230.653 214.911 229.851 213.949 228.815C212.987 227.779 212.506 226.546 212.506 225.115C212.506 223.684 212.987 222.451 213.949 221.415C214.911 220.379 216.256 219.577 217.982 219.01C219.734 218.443 221.769 218.159 224.087 218.159ZM224.087 221.933C222.681 221.933 221.473 222.056 220.461 222.303C219.475 222.55 218.71 222.907 218.167 223.376C217.625 223.845 217.353 224.424 217.353 225.115C217.353 225.806 217.625 226.398 218.167 226.891C218.71 227.36 219.475 227.717 220.461 227.964C221.473 228.186 222.681 228.297 224.087 228.297C225.493 228.297 226.69 228.186 227.676 227.964C228.663 227.717 229.428 227.36 229.97 226.891C230.513 226.398 230.784 225.806 230.784 225.115C230.784 224.424 230.513 223.845 229.97 223.376C229.428 222.907 228.663 222.55 227.676 222.303C226.69 222.056 225.493 221.933 224.087 221.933ZM265.525 197.994H270.224V232.256H265.525V197.994ZM254.24 209.723H259.938V213.719H254.24V209.723ZM258.606 198.549H263.194V230.702H258.606V198.549ZM246.877 203.581H250.577V207.096C250.577 209.02 250.429 210.919 250.133 212.794C249.861 214.669 249.43 216.445 248.838 218.122C248.246 219.775 247.469 221.267 246.507 222.599C245.545 223.931 244.385 225.029 243.029 225.892L240.106 222.266C241.783 221.205 243.115 219.873 244.102 218.27C245.088 216.642 245.791 214.866 246.211 212.942C246.655 210.993 246.877 209.045 246.877 207.096V203.581ZM247.987 203.581H251.65V207.096C251.65 208.995 251.859 210.87 252.279 212.72C252.698 214.57 253.389 216.26 254.351 217.789C255.313 219.294 256.62 220.527 258.273 221.489L255.424 225.041C253.598 223.956 252.143 222.488 251.058 220.638C249.972 218.788 249.183 216.704 248.69 214.385C248.221 212.042 247.987 209.612 247.987 207.096V203.581ZM241.364 201.435H256.645V205.394H241.364V201.435ZM289.675 208.798H313.466V212.72H289.675V208.798ZM289.675 199.548H294.596V210.537H289.675V199.548ZM285.938 216.457H316.944V220.416H285.938V216.457ZM292.968 217.863H297.889V232.293H292.968V217.863ZM304.956 217.863H309.84V232.293H304.956V217.863ZM332.703 199.992H336.958V202.471C336.958 203.951 336.749 205.394 336.329 206.8C335.935 208.181 335.343 209.489 334.553 210.722C333.764 211.955 332.79 213.078 331.63 214.089C330.496 215.076 329.188 215.927 327.708 216.642C326.228 217.357 324.6 217.888 322.824 218.233L320.715 214.126C322.245 213.855 323.638 213.448 324.896 212.905C326.179 212.338 327.301 211.659 328.263 210.87C329.225 210.081 330.039 209.23 330.705 208.317C331.371 207.38 331.865 206.418 332.185 205.431C332.531 204.42 332.703 203.433 332.703 202.471V199.992ZM333.665 199.992H337.957V202.471C337.957 203.458 338.118 204.457 338.438 205.468C338.784 206.479 339.277 207.454 339.918 208.391C340.584 209.304 341.398 210.142 342.36 210.907C343.322 211.672 344.432 212.338 345.69 212.905C346.948 213.448 348.367 213.855 349.945 214.126L347.836 218.233C346.06 217.888 344.432 217.357 342.952 216.642C341.472 215.927 340.153 215.076 338.993 214.089C337.859 213.102 336.884 211.992 336.07 210.759C335.281 209.526 334.677 208.206 334.257 206.8C333.863 205.394 333.665 203.951 333.665 202.471V199.992ZM319.975 224.079H351.018V228.112H319.975V224.079ZM353.458 232.663C356.072 232.392 357.281 231.171 357.084 229H354.79V223.08H360.784V228.075C360.784 230.517 360.192 232.268 359.008 233.329C357.824 234.414 356.134 234.969 353.939 234.994L353.458 232.663ZM397.707 198.031H402.628V222.784H397.707V198.031ZM401.259 207.355H407.179V211.388H401.259V207.355ZM376.95 213.238H379.799C382.291 213.238 384.412 213.213 386.163 213.164C387.939 213.09 389.518 212.979 390.899 212.831C392.305 212.683 393.687 212.461 395.043 212.165L395.524 216.05C394.143 216.371 392.725 216.617 391.269 216.79C389.839 216.938 388.211 217.049 386.385 217.123C384.56 217.172 382.365 217.197 379.799 217.197H376.95V213.238ZM376.95 200.732H392.305V204.654H381.871V215.31H376.95V200.732ZM380.539 227.742H403.849V231.701H380.539V227.742ZM380.539 220.157H385.497V229.74H380.539V220.157ZM419.09 200.362C420.792 200.362 422.309 200.868 423.641 201.879C424.998 202.866 426.046 204.284 426.786 206.134C427.551 207.959 427.933 210.118 427.933 212.609C427.933 215.125 427.551 217.308 426.786 219.158C426.046 220.983 424.998 222.402 423.641 223.413C422.309 224.4 420.792 224.893 419.09 224.893C417.388 224.893 415.871 224.4 414.539 223.413C413.207 222.402 412.159 220.983 411.394 219.158C410.63 217.308 410.247 215.125 410.247 212.609C410.247 210.118 410.63 207.959 411.394 206.134C412.159 204.284 413.207 202.866 414.539 201.879C415.871 200.868 417.388 200.362 419.09 200.362ZM419.09 204.839C418.276 204.839 417.549 205.135 416.907 205.727C416.291 206.319 415.81 207.195 415.464 208.354C415.119 209.489 414.946 210.907 414.946 212.609C414.946 214.286 415.119 215.717 415.464 216.901C415.81 218.06 416.291 218.936 416.907 219.528C417.549 220.12 418.276 220.416 419.09 220.416C419.954 220.416 420.694 220.12 421.31 219.528C421.927 218.936 422.408 218.06 422.753 216.901C423.099 215.717 423.271 214.286 423.271 212.609C423.271 210.907 423.099 209.489 422.753 208.354C422.408 207.195 421.927 206.319 421.31 205.727C420.694 205.135 419.954 204.839 419.09 204.839ZM433.557 197.957H438.478V232.33H433.557V197.957ZM426.49 210.352H435.629V214.274H426.49V210.352ZM443.212 232.663C445.826 232.392 447.035 231.171 446.838 229H444.544V223.08H450.538V228.075C450.538 230.517 449.946 232.268 448.762 233.329C447.578 234.414 445.888 234.969 443.693 234.994L443.212 232.663ZM468.036 200.251H482.725V204.173H468.036V200.251ZM480.468 200.251H485.278V202.397C485.278 203.902 485.217 205.715 485.093 207.836C484.995 209.957 484.625 212.56 483.983 215.643H479.062C479.753 212.609 480.16 210.019 480.283 207.873C480.407 205.702 480.468 203.877 480.468 202.397V200.251ZM481.06 207.096V210.611L467.851 211.684L467.185 207.614L481.06 207.096ZM473.771 216.568H478.729V230.48H473.771V216.568ZM489.644 197.994H494.602V232.256H489.644V197.994ZM465.853 219.047L465.261 215.051C467.531 215.026 469.923 215.002 472.439 214.977C474.955 214.928 477.521 214.841 480.135 214.718C482.75 214.57 485.291 214.373 487.757 214.126L488.09 217.715C485.574 218.085 483.021 218.369 480.431 218.566C477.866 218.739 475.35 218.862 472.883 218.936C470.441 218.985 468.098 219.022 465.853 219.047ZM499.483 224.19H530.526V228.186H499.483V224.19ZM512.359 202.767H516.54V204.691C516.54 206.146 516.331 207.528 515.911 208.835C515.517 210.142 514.925 211.363 514.135 212.498C513.371 213.608 512.421 214.619 511.286 215.532C510.152 216.42 508.857 217.185 507.401 217.826C505.946 218.467 504.355 218.948 502.628 219.269L500.667 215.31C502.197 215.063 503.578 214.693 504.811 214.2C506.069 213.707 507.167 213.115 508.104 212.424C509.042 211.733 509.819 210.981 510.435 210.167C511.077 209.328 511.558 208.453 511.878 207.54C512.199 206.603 512.359 205.653 512.359 204.691V202.767ZM513.395 202.767H517.539V204.691C517.539 205.653 517.7 206.59 518.02 207.503C518.341 208.416 518.822 209.291 519.463 210.13C520.105 210.944 520.894 211.696 521.831 212.387C522.793 213.053 523.903 213.633 525.161 214.126C526.444 214.595 527.862 214.94 529.416 215.162L527.492 219.084C525.716 218.763 524.088 218.295 522.608 217.678C521.153 217.061 519.846 216.309 518.686 215.421C517.552 214.533 516.59 213.534 515.8 212.424C515.011 211.314 514.407 210.118 513.987 208.835C513.593 207.528 513.395 206.146 513.395 204.691V202.767ZM502.036 200.88H527.862V204.802H502.036V200.88ZM555.831 197.994H560.752V232.256H555.831V197.994ZM559.235 211.388H565.192V215.458H559.235V211.388ZM538.996 201.509H543.584C543.584 203.877 543.498 206.122 543.325 208.243C543.177 210.364 542.869 212.387 542.4 214.311C541.932 216.235 541.229 218.097 540.291 219.898C539.379 221.674 538.17 223.413 536.665 225.115L532.817 222.303C534.125 220.848 535.185 219.38 535.999 217.9C536.813 216.42 537.442 214.878 537.886 213.275C538.33 211.672 538.626 209.957 538.774 208.132C538.922 206.282 538.996 204.259 538.996 202.064V201.509ZM534.334 201.509H540.92V205.468H534.334V201.509ZM548.431 201.509H553.056C553.056 203.976 552.97 206.368 552.797 208.687C552.649 210.981 552.341 213.201 551.872 215.347C551.404 217.468 550.725 219.528 549.837 221.526C548.949 223.499 547.753 225.411 546.248 227.261L542.4 224.56C543.708 222.907 544.756 221.242 545.545 219.565C546.335 217.888 546.939 216.149 547.358 214.348C547.778 212.547 548.061 210.636 548.209 208.613C548.357 206.59 548.431 204.395 548.431 202.027V201.509ZM544.768 201.509H550.466V205.468H544.768V201.509ZM575.809 203.433H579.731V207.281C579.731 209.254 579.521 211.191 579.102 213.09C578.707 214.989 578.103 216.778 577.289 218.455C576.499 220.108 575.5 221.575 574.292 222.858C573.083 224.116 571.677 225.115 570.074 225.855L567.262 221.97C568.692 221.304 569.938 220.441 570.999 219.38C572.084 218.319 572.972 217.135 573.663 215.828C574.378 214.496 574.908 213.102 575.254 211.647C575.624 210.167 575.809 208.712 575.809 207.281V203.433ZM576.882 203.433H580.767V207.281C580.767 208.638 580.939 210.019 581.285 211.425C581.655 212.806 582.185 214.126 582.876 215.384C583.566 216.617 584.442 217.727 585.503 218.714C586.563 219.701 587.821 220.49 589.277 221.082L586.576 225.004C584.948 224.289 583.529 223.327 582.321 222.118C581.112 220.909 580.101 219.516 579.287 217.937C578.473 216.358 577.868 214.669 577.474 212.868C577.079 211.043 576.882 209.18 576.882 207.281V203.433ZM568.631 201.287H587.871V205.357H568.631V201.287ZM591.053 198.031H595.974V232.293H591.053V198.031ZM637.403 197.994H642.102V232.256H637.403V197.994ZM633.296 211.092H638.994V215.014H633.296V211.092ZM629.929 198.549H634.517V230.739H629.929V198.549ZM613.649 201.509H627.154V223.709H613.649V201.509ZM622.603 205.357H618.237V219.898H622.603V205.357ZM656.345 198.993C658.121 198.993 659.687 199.338 661.044 200.029C662.425 200.695 663.51 201.62 664.3 202.804C665.114 203.963 665.521 205.308 665.521 206.837C665.521 208.366 665.114 209.723 664.3 210.907C663.51 212.066 662.425 212.979 661.044 213.645C659.687 214.311 658.121 214.644 656.345 214.644C654.618 214.644 653.064 214.311 651.683 213.645C650.301 212.979 649.204 212.066 648.39 210.907C647.6 209.723 647.206 208.366 647.206 206.837C647.206 205.308 647.6 203.951 648.39 202.767C649.204 201.583 650.301 200.658 651.683 199.992C653.064 199.326 654.618 198.993 656.345 198.993ZM656.382 202.989C655.543 202.989 654.791 203.149 654.125 203.47C653.459 203.766 652.928 204.198 652.534 204.765C652.164 205.332 651.979 206.023 651.979 206.837C651.979 207.651 652.164 208.354 652.534 208.946C652.928 209.513 653.446 209.945 654.088 210.241C654.754 210.537 655.518 210.685 656.382 210.685C657.22 210.685 657.96 210.537 658.602 210.241C659.268 209.945 659.786 209.513 660.156 208.946C660.55 208.354 660.748 207.651 660.748 206.837C660.748 206.023 660.55 205.332 660.156 204.765C659.786 204.198 659.268 203.766 658.602 203.47C657.936 203.149 657.196 202.989 656.382 202.989ZM670.257 198.031H675.178V215.162H670.257V198.031ZM652.349 216.568H675.178V225.929H657.233V230.11H652.386V222.377H670.294V220.342H652.349V216.568ZM652.386 228.075H676.029V231.923H652.386V228.075ZM692.816 201.065H697.441V208.761H701.77V201.065H706.321V224.153H692.816V201.065ZM697.441 212.572V220.231H701.77V212.572H697.441ZM716.57 197.994H721.269V232.256H716.57V197.994ZM712.389 211.092H718.05V215.014H712.389V211.092ZM709.096 198.549H713.684V230.739H709.096V198.549ZM738.879 214.311H743.763V219.121H738.879V214.311ZM741.395 198.327C745.292 198.327 748.326 198.833 750.497 199.844C752.692 200.831 753.79 202.274 753.79 204.173C753.79 206.048 752.692 207.491 750.497 208.502C748.326 209.513 745.292 210.019 741.395 210.019C737.473 210.019 734.414 209.513 732.219 208.502C730.048 207.491 728.963 206.048 728.963 204.173C728.963 202.274 730.048 200.831 732.219 199.844C734.414 198.833 737.473 198.327 741.395 198.327ZM741.358 201.916C739.73 201.916 738.373 202.002 737.288 202.175C736.202 202.323 735.388 202.57 734.846 202.915C734.328 203.236 734.069 203.655 734.069 204.173C734.069 204.691 734.328 205.123 734.846 205.468C735.388 205.789 736.202 206.023 737.288 206.171C738.373 206.319 739.73 206.393 741.358 206.393C743.01 206.393 744.379 206.319 745.465 206.171C746.55 206.023 747.352 205.789 747.87 205.468C748.388 205.123 748.647 204.691 748.647 204.173C748.647 203.655 748.388 203.236 747.87 202.915C747.352 202.57 746.55 202.323 745.465 202.175C744.379 202.002 743.01 201.916 741.358 201.916ZM725.855 211.462H756.861V215.347H725.855V211.462ZM729.407 217.604H753.087V226.373H734.328V229.407H729.444V222.969H748.24V221.23H729.407V217.604ZM729.444 228.334H754.012V232.071H729.444V228.334ZM783.934 198.993H788.226V200.621C788.226 201.928 788.017 203.199 787.597 204.432C787.203 205.641 786.611 206.775 785.821 207.836C785.032 208.897 784.07 209.846 782.935 210.685C781.801 211.524 780.481 212.239 778.976 212.831C777.496 213.398 775.868 213.83 774.092 214.126L772.168 210.167C773.747 209.97 775.153 209.637 776.386 209.168C777.644 208.699 778.742 208.144 779.679 207.503C780.641 206.862 781.431 206.159 782.047 205.394C782.664 204.629 783.133 203.84 783.453 203.026C783.774 202.212 783.934 201.41 783.934 200.621V198.993ZM784.859 198.993H789.151V200.621C789.151 201.41 789.312 202.212 789.632 203.026C789.953 203.84 790.422 204.629 791.038 205.394C791.655 206.159 792.432 206.862 793.369 207.503C794.331 208.144 795.429 208.699 796.662 209.168C797.92 209.637 799.339 209.97 800.917 210.167L798.993 214.126C797.193 213.83 795.552 213.398 794.072 212.831C792.592 212.239 791.285 211.524 790.15 210.685C789.016 209.822 788.054 208.86 787.264 207.799C786.475 206.738 785.871 205.604 785.451 204.395C785.057 203.186 784.859 201.928 784.859 200.621V198.993ZM783.934 219.713H788.855V232.293H783.934V219.713ZM771.021 216.605H802.027V220.601H771.021V216.605ZM823.847 218.825H827.547V219.972C827.547 221.699 827.276 223.339 826.733 224.893C826.191 226.447 825.352 227.816 824.217 229C823.107 230.209 821.652 231.134 819.851 231.775L817.483 228.186C818.988 227.668 820.209 226.977 821.146 226.114C822.084 225.251 822.762 224.289 823.181 223.228C823.625 222.143 823.847 221.057 823.847 219.972V218.825ZM825.068 218.825H828.583V219.972C828.583 221.057 828.781 222.155 829.175 223.265C829.595 224.35 830.224 225.349 831.062 226.262C831.926 227.175 833.06 227.915 834.466 228.482L832.468 232.145C830.668 231.454 829.225 230.468 828.139 229.185C827.054 227.927 826.265 226.496 825.771 224.893C825.303 223.265 825.068 221.625 825.068 219.972V218.825ZM836.316 218.825H839.831V219.972C839.831 221.551 839.585 223.142 839.091 224.745C838.623 226.348 837.846 227.804 836.76 229.111C835.7 230.418 834.269 231.43 832.468 232.145L830.47 228.482C831.852 227.865 832.974 227.088 833.837 226.151C834.701 225.189 835.33 224.178 835.724 223.117C836.119 222.032 836.316 220.983 836.316 219.972V218.825ZM837.463 218.825H841.163V219.972C841.163 221.131 841.373 222.254 841.792 223.339C842.236 224.424 842.927 225.386 843.864 226.225C844.802 227.064 846.023 227.717 847.527 228.186L845.159 231.775C843.359 231.158 841.891 230.258 840.756 229.074C839.622 227.915 838.783 226.558 838.24 225.004C837.722 223.425 837.463 221.748 837.463 219.972V218.825ZM839.683 198.031H844.604V217.419H839.683V198.031ZM825.956 199.77C827.732 199.77 829.323 200.128 830.729 200.843C832.135 201.534 833.245 202.496 834.059 203.729C834.873 204.962 835.28 206.381 835.28 207.984C835.28 209.587 834.873 211.006 834.059 212.239C833.245 213.472 832.135 214.447 830.729 215.162C829.323 215.853 827.732 216.198 825.956 216.198C824.18 216.198 822.589 215.853 821.183 215.162C819.777 214.447 818.667 213.472 817.853 212.239C817.039 211.006 816.632 209.587 816.632 207.984C816.632 206.381 817.039 204.962 817.853 203.729C818.667 202.496 819.777 201.534 821.183 200.843C822.589 200.128 824.18 199.77 825.956 199.77ZM825.956 203.84C825.118 203.84 824.353 204.013 823.662 204.358C822.972 204.679 822.429 205.147 822.034 205.764C821.64 206.356 821.442 207.096 821.442 207.984C821.442 208.847 821.64 209.6 822.034 210.241C822.429 210.858 822.972 211.326 823.662 211.647C824.353 211.968 825.118 212.128 825.956 212.128C826.82 212.128 827.584 211.968 828.25 211.647C828.941 211.326 829.484 210.858 829.878 210.241C830.273 209.6 830.47 208.847 830.47 207.984C830.47 207.096 830.273 206.356 829.878 205.764C829.484 205.147 828.941 204.679 828.25 204.358C827.584 204.013 826.82 203.84 825.956 203.84ZM859.549 200.362C861.251 200.362 862.768 200.868 864.1 201.879C865.457 202.866 866.505 204.284 867.245 206.134C868.01 207.959 868.392 210.118 868.392 212.609C868.392 215.125 868.01 217.308 867.245 219.158C866.505 220.983 865.457 222.402 864.1 223.413C862.768 224.4 861.251 224.893 859.549 224.893C857.847 224.893 856.33 224.4 854.998 223.413C853.666 222.402 852.618 220.983 851.853 219.158C851.089 217.308 850.706 215.125 850.706 212.609C850.706 210.118 851.089 207.959 851.853 206.134C852.618 204.284 853.666 202.866 854.998 201.879C856.33 200.868 857.847 200.362 859.549 200.362ZM859.549 204.839C858.735 204.839 858.008 205.135 857.366 205.727C856.75 206.319 856.269 207.195 855.923 208.354C855.578 209.489 855.405 210.907 855.405 212.609C855.405 214.286 855.578 215.717 855.923 216.901C856.269 218.06 856.75 218.936 857.366 219.528C858.008 220.12 858.735 220.416 859.549 220.416C860.413 220.416 861.153 220.12 861.769 219.528C862.386 218.936 862.867 218.06 863.212 216.901C863.558 215.717 863.73 214.286 863.73 212.609C863.73 210.907 863.558 209.489 863.212 208.354C862.867 207.195 862.386 206.319 861.769 205.727C861.153 205.135 860.413 204.839 859.549 204.839ZM874.016 197.957H878.937V232.33H874.016V197.957ZM866.949 210.352H876.088V214.274H866.949V210.352ZM891.033 215.421H895.954V225.004H891.033V215.421ZM903.465 215.421H908.386V225.004H903.465V215.421ZM884.225 224.301H915.268V228.297H884.225V224.301ZM899.691 199.696C902.158 199.696 904.353 200.078 906.277 200.843C908.226 201.608 909.743 202.681 910.828 204.062C911.938 205.419 912.493 207.034 912.493 208.909C912.493 210.759 911.938 212.375 910.828 213.756C909.743 215.113 908.226 216.173 906.277 216.938C904.353 217.703 902.158 218.085 899.691 218.085C897.249 218.085 895.054 217.703 893.105 216.938C891.181 216.173 889.664 215.113 888.554 213.756C887.444 212.375 886.889 210.759 886.889 208.909C886.889 207.034 887.444 205.419 888.554 204.062C889.664 202.681 891.181 201.608 893.105 200.843C895.054 200.078 897.249 199.696 899.691 199.696ZM899.691 203.507C898.113 203.507 896.719 203.729 895.51 204.173C894.326 204.592 893.401 205.197 892.735 205.986C892.069 206.775 891.736 207.75 891.736 208.909C891.736 210.019 892.069 210.981 892.735 211.795C893.401 212.584 894.326 213.201 895.51 213.645C896.719 214.064 898.113 214.274 899.691 214.274C901.295 214.274 902.688 214.064 903.872 213.645C905.081 213.201 906.006 212.584 906.647 211.795C907.313 210.981 907.646 210.019 907.646 208.909C907.646 207.75 907.313 206.775 906.647 205.986C906.006 205.197 905.081 204.592 903.872 204.173C902.688 203.729 901.295 203.507 899.691 203.507Z" fill="white"/>
<circle cx="194" cy="394" r="50" fill="white"/>
<circle cx="445" cy="394" r="50" fill="white"/>
<circle cx="696" cy="394" r="50" fill="white"/>
<path d="M997 394C997 421.614 974.614 444 947 444C919.386 444 897 421.614 897 394C897 366.386 919.386 344 947 344C974.614 344 997 366.386 997 394Z" fill="white"/>
<path d="M137.86 488H144.01L149.02 496.13L154.03 488H160.18V509H154.39V496.94L149.02 505.16H148.9L143.56 497V509H137.86V488ZM173.325 504.17C174.125 504.17 174.855 504.02 175.515 503.72C176.175 503.42 176.735 503.02 177.195 502.52C177.655 502 178.015 501.4 178.275 500.72C178.535 500.04 178.665 499.32 178.665 498.56V498.5C178.665 497.74 178.535 497.02 178.275 496.34C178.015 495.66 177.645 495.06 177.165 494.54C176.685 494.02 176.115 493.61 175.455 493.31C174.795 492.99 174.065 492.83 173.265 492.83C172.465 492.83 171.735 492.98 171.075 493.28C170.435 493.58 169.875 493.99 169.395 494.51C168.935 495.01 168.575 495.6 168.315 496.28C168.075 496.96 167.955 497.68 167.955 498.44V498.5C167.955 499.26 168.085 499.98 168.345 500.66C168.605 501.34 168.965 501.94 169.425 502.46C169.905 502.98 170.475 503.4 171.135 503.72C171.795 504.02 172.525 504.17 173.325 504.17ZM173.265 509.42C171.645 509.42 170.145 509.14 168.765 508.58C167.385 508 166.195 507.22 165.195 506.24C164.195 505.26 163.405 504.11 162.825 502.79C162.265 501.47 161.985 500.06 161.985 498.56V498.5C161.985 497 162.265 495.59 162.825 494.27C163.405 492.93 164.205 491.77 165.225 490.79C166.245 489.79 167.445 489.01 168.825 488.45C170.205 487.87 171.705 487.58 173.325 487.58C174.945 487.58 176.445 487.87 177.825 488.45C179.205 489.01 180.395 489.78 181.395 490.76C182.395 491.74 183.175 492.89 183.735 494.21C184.315 495.53 184.605 496.94 184.605 498.44V498.5C184.605 500 184.315 501.42 183.735 502.76C183.175 504.08 182.385 505.24 181.365 506.24C180.345 507.22 179.145 508 177.765 508.58C176.385 509.14 174.885 509.42 173.265 509.42ZM186.437 488H191.867L200.507 499.1V488H206.267V509H201.167L192.197 497.48V509H186.437V488Z" fill="#A0E8AF"/>
<path d="M210.981 492.2H230.721V496.01H210.981V492.2ZM210.981 484.88H215.811V493.88H210.981V484.88ZM208.011 498.59H233.481V502.46H208.011V498.59ZM213.381 499.94H218.211V511.85H213.381V499.94ZM223.251 499.94H228.081V511.85H223.251V499.94ZM244.399 485.15H248.599V487.1C248.599 488.32 248.449 489.52 248.149 490.7C247.869 491.86 247.419 492.97 246.799 494.03C246.199 495.07 245.429 496.02 244.489 496.88C243.569 497.74 242.469 498.48 241.189 499.1C239.909 499.72 238.449 500.18 236.809 500.48L234.769 496.46C236.189 496.22 237.429 495.87 238.489 495.41C239.569 494.93 240.479 494.37 241.219 493.73C241.979 493.07 242.589 492.37 243.049 491.63C243.529 490.89 243.869 490.13 244.069 489.35C244.289 488.57 244.399 487.82 244.399 487.1V485.15ZM245.389 485.15H249.589V487.1C249.589 487.84 249.689 488.61 249.889 489.41C250.109 490.19 250.449 490.95 250.909 491.69C251.369 492.43 251.969 493.12 252.709 493.76C253.469 494.38 254.379 494.93 255.439 495.41C256.519 495.87 257.779 496.22 259.219 496.46L257.179 500.48C255.539 500.18 254.079 499.72 252.799 499.1C251.519 498.48 250.409 497.75 249.469 496.91C248.549 496.05 247.779 495.1 247.159 494.06C246.559 493 246.109 491.89 245.809 490.73C245.529 489.55 245.389 488.34 245.389 487.1V485.15ZM234.409 504.68H259.879V508.61H234.409V504.68Z" fill="white"/>
<path d="M390.86 487H397.01L402.02 495.13L407.03 487H413.18V508H407.39V495.94L402.02 504.16H401.9L396.56 496V508H390.86V487ZM426.325 503.17C427.125 503.17 427.855 503.02 428.515 502.72C429.175 502.42 429.735 502.02 430.195 501.52C430.655 501 431.015 500.4 431.275 499.72C431.535 499.04 431.665 498.32 431.665 497.56V497.5C431.665 496.74 431.535 496.02 431.275 495.34C431.015 494.66 430.645 494.06 430.165 493.54C429.685 493.02 429.115 492.61 428.455 492.31C427.795 491.99 427.065 491.83 426.265 491.83C425.465 491.83 424.735 491.98 424.075 492.28C423.435 492.58 422.875 492.99 422.395 493.51C421.935 494.01 421.575 494.6 421.315 495.28C421.075 495.96 420.955 496.68 420.955 497.44V497.5C420.955 498.26 421.085 498.98 421.345 499.66C421.605 500.34 421.965 500.94 422.425 501.46C422.905 501.98 423.475 502.4 424.135 502.72C424.795 503.02 425.525 503.17 426.325 503.17ZM426.265 508.42C424.645 508.42 423.145 508.14 421.765 507.58C420.385 507 419.195 506.22 418.195 505.24C417.195 504.26 416.405 503.11 415.825 501.79C415.265 500.47 414.985 499.06 414.985 497.56V497.5C414.985 496 415.265 494.59 415.825 493.27C416.405 491.93 417.205 490.77 418.225 489.79C419.245 488.79 420.445 488.01 421.825 487.45C423.205 486.87 424.705 486.58 426.325 486.58C427.945 486.58 429.445 486.87 430.825 487.45C432.205 488.01 433.395 488.78 434.395 489.76C435.395 490.74 436.175 491.89 436.735 493.21C437.315 494.53 437.605 495.94 437.605 497.44V497.5C437.605 499 437.315 500.42 436.735 501.76C436.175 503.08 435.385 504.24 434.365 505.24C433.345 506.22 432.145 507 430.765 507.58C429.385 508.14 427.885 508.42 426.265 508.42ZM439.437 487H444.867L453.507 498.1V487H459.267V508H454.167L445.197 496.48V508H439.437V487Z" fill="#A0E8AF"/>
<path d="M478.471 482.71H483.301V503.02H478.471V482.71ZM481.981 490H486.811V493.93H481.981V490ZM461.911 494.77H464.341C466.441 494.77 468.211 494.75 469.651 494.71C471.111 494.67 472.391 494.59 473.491 494.47C474.591 494.35 475.661 494.18 476.701 493.96L477.151 497.74C476.091 497.98 474.981 498.17 473.821 498.31C472.681 498.43 471.351 498.52 469.831 498.58C468.331 498.62 466.501 498.64 464.341 498.64H461.911V494.77ZM461.911 484.81H474.601V488.65H466.741V496.81H461.911V484.81ZM464.821 506.59H484.171V510.43H464.821V506.59ZM464.821 500.83H469.681V508.6H464.821V500.83ZM495.209 484.51C496.629 484.51 497.899 484.93 499.019 485.77C500.139 486.59 501.019 487.76 501.659 489.28C502.299 490.8 502.619 492.6 502.619 494.68C502.619 496.78 502.299 498.6 501.659 500.14C501.019 501.66 500.139 502.84 499.019 503.68C497.899 504.5 496.629 504.91 495.209 504.91C493.789 504.91 492.519 504.5 491.399 503.68C490.279 502.84 489.399 501.66 488.759 500.14C488.119 498.6 487.799 496.78 487.799 494.68C487.799 492.6 488.119 490.8 488.759 489.28C489.399 487.76 490.279 486.59 491.399 485.77C492.519 484.93 493.789 484.51 495.209 484.51ZM495.209 488.92C494.649 488.92 494.159 489.13 493.739 489.55C493.319 489.95 492.989 490.58 492.749 491.44C492.529 492.28 492.419 493.36 492.419 494.68C492.419 496 492.529 497.09 492.749 497.95C492.989 498.81 493.319 499.45 493.739 499.87C494.159 500.29 494.649 500.5 495.209 500.5C495.789 500.5 496.279 500.29 496.679 499.87C497.099 499.45 497.419 498.81 497.639 497.95C497.879 497.09 497.999 496 497.999 494.68C497.999 493.36 497.879 492.28 497.639 491.44C497.419 490.58 497.099 489.95 496.679 489.55C496.279 489.13 495.789 488.92 495.209 488.92ZM506.429 482.65H511.259V510.91H506.429V482.65ZM501.239 492.49H508.439V496.36H501.239V492.49Z" fill="white"/>
<path d="M634.86 487H641.01L646.02 495.13L651.03 487H657.18V508H651.39V495.94L646.02 504.16H645.9L640.56 496V508H634.86V487ZM670.325 503.17C671.125 503.17 671.855 503.02 672.515 502.72C673.175 502.42 673.735 502.02 674.195 501.52C674.655 501 675.015 500.4 675.275 499.72C675.535 499.04 675.665 498.32 675.665 497.56V497.5C675.665 496.74 675.535 496.02 675.275 495.34C675.015 494.66 674.645 494.06 674.165 493.54C673.685 493.02 673.115 492.61 672.455 492.31C671.795 491.99 671.065 491.83 670.265 491.83C669.465 491.83 668.735 491.98 668.075 492.28C667.435 492.58 666.875 492.99 666.395 493.51C665.935 494.01 665.575 494.6 665.315 495.28C665.075 495.96 664.955 496.68 664.955 497.44V497.5C664.955 498.26 665.085 498.98 665.345 499.66C665.605 500.34 665.965 500.94 666.425 501.46C666.905 501.98 667.475 502.4 668.135 502.72C668.795 503.02 669.525 503.17 670.325 503.17ZM670.265 508.42C668.645 508.42 667.145 508.14 665.765 507.58C664.385 507 663.195 506.22 662.195 505.24C661.195 504.26 660.405 503.11 659.825 501.79C659.265 500.47 658.985 499.06 658.985 497.56V497.5C658.985 496 659.265 494.59 659.825 493.27C660.405 491.93 661.205 490.77 662.225 489.79C663.245 488.79 664.445 488.01 665.825 487.45C667.205 486.87 668.705 486.58 670.325 486.58C671.945 486.58 673.445 486.87 674.825 487.45C676.205 488.01 677.395 488.78 678.395 489.76C679.395 490.74 680.175 491.89 680.735 493.21C681.315 494.53 681.605 495.94 681.605 497.44V497.5C681.605 499 681.315 500.42 680.735 501.76C680.175 503.08 679.385 504.24 678.365 505.24C677.345 506.22 676.145 507 674.765 507.58C673.385 508.14 671.885 508.42 670.265 508.42ZM683.437 487H688.867L697.507 498.1V487H703.267V508H698.167L689.197 496.48V508H683.437V487Z" fill="#A0E8AF"/>
<path d="M707.051 484.39H718.871V488.2H707.051V484.39ZM716.741 484.39H721.481V486.43C721.481 487.77 721.431 489.29 721.331 490.99C721.251 492.69 720.941 494.76 720.401 497.2H715.571C716.151 494.8 716.491 492.73 716.591 490.99C716.691 489.25 716.741 487.73 716.741 486.43V484.39ZM717.311 490.12V493.57L706.901 494.41L706.301 490.45L717.311 490.12ZM711.401 498.07H716.261V509.44H711.401V498.07ZM724.451 482.68H729.311V510.82H724.451V482.68ZM705.431 500.44L704.861 496.54C706.701 496.54 708.641 496.53 710.681 496.51C712.741 496.47 714.831 496.4 716.951 496.3C719.071 496.18 721.131 496.01 723.131 495.79L723.461 499.3C721.401 499.62 719.331 499.86 717.251 500.02C715.171 500.18 713.131 500.29 711.131 500.35C709.151 500.39 707.251 500.42 705.431 500.44ZM731.409 503.77H756.879V507.67H731.409V503.77ZM741.549 486.64H745.629V487.84C745.629 489.04 745.489 490.19 745.209 491.29C744.929 492.39 744.489 493.42 743.889 494.38C743.309 495.32 742.559 496.18 741.639 496.96C740.739 497.72 739.659 498.38 738.399 498.94C737.159 499.48 735.739 499.89 734.139 500.17L732.249 496.3C733.669 496.08 734.899 495.77 735.939 495.37C736.979 494.95 737.859 494.46 738.579 493.9C739.299 493.34 739.869 492.73 740.289 492.07C740.729 491.41 741.049 490.72 741.249 490C741.449 489.28 741.549 488.56 741.549 487.84V486.64ZM742.569 486.64H746.649V487.84C746.649 488.56 746.749 489.28 746.949 490C747.149 490.7 747.469 491.38 747.909 492.04C748.349 492.68 748.929 493.28 749.649 493.84C750.389 494.38 751.289 494.85 752.349 495.25C753.429 495.65 754.689 495.95 756.129 496.15L754.269 499.99C752.629 499.71 751.169 499.31 749.889 498.79C748.629 498.25 747.539 497.61 746.619 496.87C745.699 496.11 744.939 495.26 744.339 494.32C743.739 493.38 743.289 492.37 742.989 491.29C742.709 490.19 742.569 489.04 742.569 487.84V486.64ZM733.509 484.81H754.689V488.62H733.509V484.81Z" fill="white"/>
<path d="M875.198 487H881.348L886.358 495.13L891.368 487H897.518V508H891.728V495.94L886.358 504.16H886.238L880.898 496V508H875.198V487ZM910.663 503.17C911.463 503.17 912.193 503.02 912.853 502.72C913.513 502.42 914.073 502.02 914.533 501.52C914.993 501 915.353 500.4 915.613 499.72C915.873 499.04 916.003 498.32 916.003 497.56V497.5C916.003 496.74 915.873 496.02 915.613 495.34C915.353 494.66 914.983 494.06 914.503 493.54C914.023 493.02 913.453 492.61 912.793 492.31C912.133 491.99 911.403 491.83 910.603 491.83C909.803 491.83 909.073 491.98 908.413 492.28C907.773 492.58 907.213 492.99 906.733 493.51C906.273 494.01 905.913 494.6 905.653 495.28C905.413 495.96 905.293 496.68 905.293 497.44V497.5C905.293 498.26 905.423 498.98 905.683 499.66C905.943 500.34 906.303 500.94 906.763 501.46C907.243 501.98 907.813 502.4 908.473 502.72C909.133 503.02 909.863 503.17 910.663 503.17ZM910.603 508.42C908.983 508.42 907.483 508.14 906.103 507.58C904.723 507 903.533 506.22 902.533 505.24C901.533 504.26 900.743 503.11 900.163 501.79C899.603 500.47 899.323 499.06 899.323 497.56V497.5C899.323 496 899.603 494.59 900.163 493.27C900.743 491.93 901.543 490.77 902.563 489.79C903.583 488.79 904.783 488.01 906.163 487.45C907.543 486.87 909.043 486.58 910.663 486.58C912.283 486.58 913.783 486.87 915.163 487.45C916.543 488.01 917.733 488.78 918.733 489.76C919.733 490.74 920.513 491.89 921.073 493.21C921.653 494.53 921.943 495.94 921.943 497.44V497.5C921.943 499 921.653 500.42 921.073 501.76C920.513 503.08 919.723 504.24 918.703 505.24C917.683 506.22 916.483 507 915.103 507.58C913.723 508.14 912.223 508.42 910.603 508.42ZM923.774 487H929.204L937.844 498.1V487H943.604V508H938.504L929.534 496.48V508H923.774V487Z" fill="#A0E8AF"/>
<path d="M951.889 484.72H955.819V488.29C955.819 490.21 955.679 492.05 955.399 493.81C955.139 495.57 954.689 497.21 954.049 498.73C953.429 500.25 952.599 501.59 951.559 502.75C950.539 503.89 949.259 504.8 947.719 505.48L944.869 501.49C946.189 500.93 947.299 500.19 948.199 499.27C949.099 498.35 949.819 497.31 950.359 496.15C950.899 494.97 951.289 493.71 951.529 492.37C951.769 491.03 951.889 489.67 951.889 488.29V484.72ZM952.879 484.72H956.779V488.29C956.779 489.61 956.889 490.9 957.109 492.16C957.329 493.42 957.699 494.61 958.219 495.73C958.739 496.85 959.429 497.85 960.289 498.73C961.169 499.59 962.249 500.29 963.529 500.83L960.739 504.76C959.259 504.1 958.009 503.22 956.989 502.12C955.989 501 955.189 499.72 954.589 498.28C953.989 496.84 953.549 495.27 953.269 493.57C953.009 491.87 952.879 490.11 952.879 488.29V484.72ZM964.009 482.65H968.869V510.91H964.009V482.65ZM990.497 482.65H995.357V510.91H990.497V482.65ZM973.187 500.56H975.767C977.487 500.56 979.077 500.54 980.537 500.5C982.017 500.44 983.437 500.35 984.797 500.23C986.177 500.09 987.557 499.9 988.937 499.66L989.417 503.53C987.297 503.93 985.147 504.19 982.967 504.31C980.807 504.43 978.407 504.49 975.767 504.49H973.187V500.56ZM973.157 484.93H986.597V496.27H978.107V502.03H973.187V492.49H981.647V488.77H973.157V484.93ZM998.144 503.77H1023.61V507.67H998.144V503.77ZM1008.28 486.64H1012.36V487.84C1012.36 489.04 1012.22 490.19 1011.94 491.29C1011.66 492.39 1011.22 493.42 1010.62 494.38C1010.04 495.32 1009.29 496.18 1008.37 496.96C1007.47 497.72 1006.39 498.38 1005.13 498.94C1003.89 499.48 1002.47 499.89 1000.87 500.17L998.984 496.3C1000.4 496.08 1001.63 495.77 1002.67 495.37C1003.71 494.95 1004.59 494.46 1005.31 493.9C1006.03 493.34 1006.6 492.73 1007.02 492.07C1007.46 491.41 1007.78 490.72 1007.98 490C1008.18 489.28 1008.28 488.56 1008.28 487.84V486.64ZM1009.3 486.64H1013.38V487.84C1013.38 488.56 1013.48 489.28 1013.68 490C1013.88 490.7 1014.2 491.38 1014.64 492.04C1015.08 492.68 1015.66 493.28 1016.38 493.84C1017.12 494.38 1018.02 494.85 1019.08 495.25C1020.16 495.65 1021.42 495.95 1022.86 496.15L1021 499.99C1019.36 499.71 1017.9 499.31 1016.62 498.79C1015.36 498.25 1014.27 497.61 1013.35 496.87C1012.43 496.11 1011.67 495.26 1011.07 494.32C1010.47 493.38 1010.02 492.37 1009.72 491.29C1009.44 490.19 1009.3 489.04 1009.3 487.84V486.64ZM1000.24 484.81H1021.42V488.62H1000.24V484.81Z" fill="white"/>
<path d="M145 539.38H147.1V557.66H145V539.38ZM146.62 546.72H149.92V548.46H146.62V546.72ZM132.82 542.2H143.54V543.88H132.82V542.2ZM138.26 545.18C139.127 545.18 139.9 545.367 140.58 545.74C141.26 546.1 141.793 546.6 142.18 547.24C142.58 547.88 142.78 548.613 142.78 549.44C142.78 550.28 142.58 551.02 142.18 551.66C141.793 552.3 141.26 552.807 140.58 553.18C139.9 553.54 139.12 553.72 138.24 553.72C137.373 553.72 136.6 553.54 135.92 553.18C135.24 552.807 134.7 552.3 134.3 551.66C133.913 551.02 133.72 550.28 133.72 549.44C133.72 548.613 133.913 547.88 134.3 547.24C134.7 546.6 135.24 546.1 135.92 545.74C136.6 545.367 137.38 545.18 138.26 545.18ZM138.24 546.9C137.76 546.9 137.327 547.007 136.94 547.22C136.553 547.433 136.247 547.733 136.02 548.12C135.807 548.493 135.7 548.933 135.7 549.44C135.7 549.96 135.807 550.413 136.02 550.8C136.247 551.173 136.553 551.467 136.94 551.68C137.327 551.893 137.76 552 138.24 552C138.733 552 139.167 551.893 139.54 551.68C139.927 551.467 140.227 551.173 140.44 550.8C140.667 550.413 140.78 549.96 140.78 549.44C140.78 548.933 140.667 548.493 140.44 548.12C140.227 547.733 139.927 547.433 139.54 547.22C139.167 547.007 138.733 546.9 138.24 546.9ZM137.18 539.62H139.28V542.9H137.18V539.62ZM152.458 540.04H165.098V545.1H154.618V548.08H152.498V543.52H162.998V541.7H152.458V540.04ZM152.498 547.06H165.538V548.76H152.498V547.06ZM150.518 550.4H167.078V552.1H150.518V550.4ZM157.718 551.02H159.798V557.68H157.718V551.02ZM182.093 542.52H186.713V544.2H182.093V542.52ZM181.933 546.32H186.573V548.02H181.933V546.32ZM186.353 539.38H188.453V550.12H186.353V539.38ZM180.533 540.68H182.773C182.773 542.28 182.446 543.713 181.793 544.98C181.14 546.233 180.18 547.307 178.913 548.2C177.66 549.093 176.133 549.8 174.333 550.32L173.513 548.66C175.06 548.22 176.353 547.66 177.393 546.98C178.446 546.287 179.233 545.493 179.753 544.6C180.273 543.693 180.533 542.713 180.533 541.66V540.68ZM174.473 540.68H181.993V542.38H174.473V540.68ZM182.473 550.34C183.713 550.34 184.786 550.487 185.693 550.78C186.6 551.073 187.3 551.487 187.793 552.02C188.3 552.553 188.553 553.193 188.553 553.94C188.553 554.687 188.3 555.333 187.793 555.88C187.3 556.413 186.6 556.827 185.693 557.12C184.786 557.413 183.713 557.56 182.473 557.56C181.246 557.56 180.173 557.413 179.253 557.12C178.333 556.827 177.62 556.413 177.113 555.88C176.606 555.333 176.353 554.687 176.353 553.94C176.353 553.193 176.606 552.553 177.113 552.02C177.62 551.487 178.333 551.073 179.253 550.78C180.173 550.487 181.246 550.34 182.473 550.34ZM182.473 551.98C181.646 551.98 180.926 552.06 180.313 552.22C179.713 552.367 179.246 552.587 178.913 552.88C178.593 553.173 178.433 553.527 178.433 553.94C178.433 554.367 178.593 554.727 178.913 555.02C179.246 555.313 179.713 555.54 180.313 555.7C180.926 555.847 181.646 555.92 182.473 555.92C183.3 555.92 184.013 555.847 184.613 555.7C185.213 555.54 185.673 555.313 185.993 555.02C186.326 554.727 186.493 554.367 186.493 553.94C186.493 553.527 186.326 553.173 185.993 552.88C185.673 552.587 185.213 552.367 184.613 552.22C184.013 552.06 183.3 551.98 182.473 551.98ZM204.491 539.36H206.491V557.64H204.491V539.36ZM198.111 545.8H201.411V547.5H198.111V545.8ZM200.831 539.74H202.791V556.76H200.831V539.74ZM194.431 542.26H196.011V544.4C196.011 545.4 195.925 546.393 195.751 547.38C195.591 548.353 195.338 549.267 194.991 550.12C194.658 550.973 194.231 551.747 193.711 552.44C193.191 553.12 192.585 553.673 191.891 554.1L190.611 552.56C191.491 552.013 192.211 551.313 192.771 550.46C193.331 549.593 193.745 548.64 194.011 547.6C194.291 546.547 194.431 545.48 194.431 544.4V542.26ZM194.871 542.26H196.451V544.4C196.451 545.44 196.585 546.46 196.851 547.46C197.118 548.46 197.525 549.367 198.071 550.18C198.631 550.98 199.338 551.633 200.191 552.14L198.951 553.66C198.031 553.1 197.271 552.347 196.671 551.4C196.071 550.44 195.618 549.36 195.311 548.16C195.018 546.96 194.871 545.707 194.871 544.4V542.26ZM191.191 541.36H199.451V543.08H191.191V541.36ZM210.57 545.36H223.13V547.04H210.57V545.36ZM210.57 540.26H212.65V546.14H210.57V540.26ZM208.51 549.38H225.03V551.1H208.51V549.38ZM212.55 550.02H214.65V557.66H212.55V550.02ZM218.89 550.02H220.97V557.66H218.89V550.02ZM233.188 540.54H235.008V541.9C235.008 542.7 234.882 543.467 234.628 544.2C234.388 544.92 234.042 545.6 233.588 546.24C233.135 546.867 232.595 547.433 231.968 547.94C231.355 548.447 230.675 548.88 229.928 549.24C229.182 549.587 228.402 549.847 227.588 550.02L226.668 548.28C227.388 548.147 228.075 547.94 228.728 547.66C229.382 547.367 229.982 547.013 230.528 546.6C231.075 546.173 231.542 545.713 231.928 545.22C232.328 544.713 232.635 544.18 232.848 543.62C233.075 543.047 233.188 542.473 233.188 541.9V540.54ZM233.588 540.54H235.408V541.9C235.408 542.487 235.515 543.06 235.728 543.62C235.955 544.18 236.268 544.713 236.668 545.22C237.068 545.727 237.542 546.187 238.088 546.6C238.635 547.013 239.235 547.367 239.888 547.66C240.542 547.94 241.228 548.147 241.948 548.28L241.028 550.02C240.215 549.847 239.435 549.587 238.688 549.24C237.942 548.88 237.255 548.447 236.628 547.94C236.015 547.433 235.482 546.867 235.028 546.24C234.575 545.6 234.222 544.92 233.968 544.2C233.715 543.467 233.588 542.7 233.588 541.9V540.54ZM226.108 553.56H242.668V555.3H226.108V553.56ZM251.543 544.4L249.023 545.1L248.503 543.1L252.263 541.9H253.983V556H251.543V544.4ZM269.573 539.36H271.593V557.64H269.573V539.36ZM266.913 546.52H270.213V548.2H266.913V546.52ZM261.873 541.68H263.873C263.873 542.907 263.759 544.087 263.533 545.22C263.319 546.353 262.953 547.44 262.433 548.48C261.926 549.507 261.239 550.467 260.373 551.36C259.506 552.24 258.433 553.053 257.153 553.8L255.933 552.34C257.399 551.487 258.566 550.54 259.433 549.5C260.299 548.46 260.919 547.327 261.293 546.1C261.679 544.86 261.873 543.52 261.873 542.08V541.68ZM256.733 541.68H262.513V543.38H256.733V541.68ZM265.533 539.84H267.493V556.8H265.533V539.84Z" fill="white"/>
<path d="M384.391 539.38H386.491V557.66H384.391V539.38ZM386.011 546.72H389.311V548.46H386.011V546.72ZM372.211 542.2H382.931V543.88H372.211V542.2ZM377.651 545.18C378.517 545.18 379.291 545.367 379.971 545.74C380.651 546.1 381.184 546.6 381.571 547.24C381.971 547.88 382.171 548.613 382.171 549.44C382.171 550.28 381.971 551.02 381.571 551.66C381.184 552.3 380.651 552.807 379.971 553.18C379.291 553.54 378.511 553.72 377.631 553.72C376.764 553.72 375.991 553.54 375.311 553.18C374.631 552.807 374.091 552.3 373.691 551.66C373.304 551.02 373.111 550.28 373.111 549.44C373.111 548.613 373.304 547.88 373.691 547.24C374.091 546.6 374.631 546.1 375.311 545.74C375.991 545.367 376.771 545.18 377.651 545.18ZM377.631 546.9C377.151 546.9 376.717 547.007 376.331 547.22C375.944 547.433 375.637 547.733 375.411 548.12C375.197 548.493 375.091 548.933 375.091 549.44C375.091 549.96 375.197 550.413 375.411 550.8C375.637 551.173 375.944 551.467 376.331 551.68C376.717 551.893 377.151 552 377.631 552C378.124 552 378.557 551.893 378.931 551.68C379.317 551.467 379.617 551.173 379.831 550.8C380.057 550.413 380.171 549.96 380.171 549.44C380.171 548.933 380.057 548.493 379.831 548.12C379.617 547.733 379.317 547.433 378.931 547.22C378.557 547.007 378.124 546.9 377.631 546.9ZM376.571 539.62H378.671V542.9H376.571V539.62ZM391.849 540.04H404.489V545.1H394.009V548.08H391.889V543.52H402.389V541.7H391.849V540.04ZM391.889 547.06H404.929V548.76H391.889V547.06ZM389.909 550.4H406.469V552.1H389.909V550.4ZM397.109 551.02H399.189V557.68H397.109V551.02ZM421.484 542.52H426.104V544.2H421.484V542.52ZM421.324 546.32H425.964V548.02H421.324V546.32ZM425.744 539.38H427.844V550.12H425.744V539.38ZM419.924 540.68H422.164C422.164 542.28 421.837 543.713 421.184 544.98C420.53 546.233 419.57 547.307 418.304 548.2C417.05 549.093 415.524 549.8 413.724 550.32L412.904 548.66C414.45 548.22 415.744 547.66 416.784 546.98C417.837 546.287 418.624 545.493 419.144 544.6C419.664 543.693 419.924 542.713 419.924 541.66V540.68ZM413.864 540.68H421.384V542.38H413.864V540.68ZM421.864 550.34C423.104 550.34 424.177 550.487 425.084 550.78C425.99 551.073 426.69 551.487 427.184 552.02C427.69 552.553 427.944 553.193 427.944 553.94C427.944 554.687 427.69 555.333 427.184 555.88C426.69 556.413 425.99 556.827 425.084 557.12C424.177 557.413 423.104 557.56 421.864 557.56C420.637 557.56 419.564 557.413 418.644 557.12C417.724 556.827 417.01 556.413 416.504 555.88C415.997 555.333 415.744 554.687 415.744 553.94C415.744 553.193 415.997 552.553 416.504 552.02C417.01 551.487 417.724 551.073 418.644 550.78C419.564 550.487 420.637 550.34 421.864 550.34ZM421.864 551.98C421.037 551.98 420.317 552.06 419.704 552.22C419.104 552.367 418.637 552.587 418.304 552.88C417.984 553.173 417.824 553.527 417.824 553.94C417.824 554.367 417.984 554.727 418.304 555.02C418.637 555.313 419.104 555.54 419.704 555.7C420.317 555.847 421.037 555.92 421.864 555.92C422.69 555.92 423.404 555.847 424.004 555.7C424.604 555.54 425.064 555.313 425.384 555.02C425.717 554.727 425.884 554.367 425.884 553.94C425.884 553.527 425.717 553.173 425.384 552.88C425.064 552.587 424.604 552.367 424.004 552.22C423.404 552.06 422.69 551.98 421.864 551.98ZM443.882 539.36H445.882V557.64H443.882V539.36ZM437.502 545.8H440.802V547.5H437.502V545.8ZM440.222 539.74H442.182V556.76H440.222V539.74ZM433.822 542.26H435.402V544.4C435.402 545.4 435.315 546.393 435.142 547.38C434.982 548.353 434.729 549.267 434.382 550.12C434.049 550.973 433.622 551.747 433.102 552.44C432.582 553.12 431.975 553.673 431.282 554.1L430.002 552.56C430.882 552.013 431.602 551.313 432.162 550.46C432.722 549.593 433.135 548.64 433.402 547.6C433.682 546.547 433.822 545.48 433.822 544.4V542.26ZM434.262 542.26H435.842V544.4C435.842 545.44 435.975 546.46 436.242 547.46C436.509 548.46 436.915 549.367 437.462 550.18C438.022 550.98 438.729 551.633 439.582 552.14L438.342 553.66C437.422 553.1 436.662 552.347 436.062 551.4C435.462 550.44 435.009 549.36 434.702 548.16C434.409 546.96 434.262 545.707 434.262 544.4V542.26ZM430.582 541.36H438.842V543.08H430.582V541.36ZM465.277 539.36H467.357V552.6H465.277V539.36ZM466.757 544.6H469.957V546.32H466.757V544.6ZM453.857 547.76H455.337C456.617 547.76 457.723 547.747 458.657 547.72C459.603 547.693 460.463 547.64 461.237 547.56C462.01 547.467 462.783 547.34 463.557 547.18L463.777 548.86C462.99 549.02 462.197 549.147 461.397 549.24C460.597 549.32 459.71 549.38 458.737 549.42C457.777 549.46 456.643 549.48 455.337 549.48H453.857V547.76ZM453.857 540.88H461.977V542.58H455.957V548.68H453.857V540.88ZM455.797 555.58H468.117V557.28H455.797V555.58ZM455.797 551.24H457.897V556.4H455.797V551.24ZM475.615 540.7C476.522 540.7 477.322 540.967 478.015 541.5C478.708 542.033 479.255 542.78 479.655 543.74C480.055 544.7 480.255 545.833 480.255 547.14C480.255 548.46 480.055 549.607 479.655 550.58C479.255 551.54 478.708 552.287 478.015 552.82C477.322 553.34 476.522 553.6 475.615 553.6C474.722 553.6 473.922 553.34 473.215 552.82C472.522 552.287 471.975 551.54 471.575 550.58C471.188 549.607 470.995 548.46 470.995 547.14C470.995 545.833 471.188 544.7 471.575 543.74C471.975 542.78 472.522 542.033 473.215 541.5C473.922 540.967 474.722 540.7 475.615 540.7ZM475.615 542.6C475.095 542.6 474.635 542.78 474.235 543.14C473.848 543.5 473.542 544.02 473.315 544.7C473.102 545.38 472.995 546.193 472.995 547.14C472.995 548.1 473.102 548.92 473.315 549.6C473.542 550.28 473.848 550.807 474.235 551.18C474.635 551.54 475.095 551.72 475.615 551.72C476.148 551.72 476.608 551.54 476.995 551.18C477.395 550.807 477.702 550.28 477.915 549.6C478.142 548.92 478.255 548.1 478.255 547.14C478.255 546.193 478.142 545.38 477.915 544.7C477.702 544.02 477.395 543.5 476.995 543.14C476.608 542.78 476.148 542.6 475.615 542.6ZM483.775 539.36H485.875V557.68H483.775V539.36ZM479.595 546.16H484.675V547.86H479.595V546.16ZM498.65 556.24C497.57 556.24 496.61 556.047 495.77 555.66C494.93 555.26 494.176 554.74 493.51 554.1L495.03 552.32C495.59 552.84 496.163 553.253 496.75 553.56C497.35 553.853 497.976 554 498.63 554C499.47 554 500.143 553.78 500.65 553.34C501.156 552.9 501.41 552.313 501.41 551.58V551.54C501.41 550.82 501.136 550.253 500.59 549.84C500.056 549.427 499.363 549.22 498.51 549.22C498.003 549.22 497.536 549.28 497.11 549.4C496.683 549.52 496.29 549.667 495.93 549.84L494.45 548.86L494.85 542H503.21V544.18H496.97L496.75 547.46C497.083 547.34 497.416 547.247 497.75 547.18C498.096 547.1 498.503 547.06 498.97 547.06C499.65 547.06 500.283 547.153 500.87 547.34C501.47 547.513 501.983 547.787 502.41 548.16C502.85 548.52 503.196 548.98 503.45 549.54C503.703 550.087 503.83 550.727 503.83 551.46V551.5C503.83 552.22 503.703 552.873 503.45 553.46C503.21 554.033 502.863 554.527 502.41 554.94C501.956 555.353 501.41 555.673 500.77 555.9C500.13 556.127 499.423 556.24 498.65 556.24ZM518.671 539.36H520.691V557.64H518.671V539.36ZM516.011 546.52H519.311V548.2H516.011V546.52ZM510.971 541.68H512.971C512.971 542.907 512.858 544.087 512.631 545.22C512.418 546.353 512.051 547.44 511.531 548.48C511.024 549.507 510.338 550.467 509.471 551.36C508.604 552.24 507.531 553.053 506.251 553.8L505.031 552.34C506.498 551.487 507.664 550.54 508.531 549.5C509.398 548.46 510.018 547.327 510.391 546.1C510.778 544.86 510.971 543.52 510.971 542.08V541.68ZM505.831 541.68H511.611V543.38H505.831V541.68ZM514.631 539.84H516.591V556.8H514.631V539.84Z" fill="white"/>
<path d="M660.484 539.38H662.584V557.66H660.484V539.38ZM662.104 546.72H665.404V548.46H662.104V546.72ZM648.304 542.2H659.024V543.88H648.304V542.2ZM653.744 545.18C654.611 545.18 655.384 545.367 656.064 545.74C656.744 546.1 657.278 546.6 657.664 547.24C658.064 547.88 658.264 548.613 658.264 549.44C658.264 550.28 658.064 551.02 657.664 551.66C657.278 552.3 656.744 552.807 656.064 553.18C655.384 553.54 654.604 553.72 653.724 553.72C652.858 553.72 652.084 553.54 651.404 553.18C650.724 552.807 650.184 552.3 649.784 551.66C649.398 551.02 649.204 550.28 649.204 549.44C649.204 548.613 649.398 547.88 649.784 547.24C650.184 546.6 650.724 546.1 651.404 545.74C652.084 545.367 652.864 545.18 653.744 545.18ZM653.724 546.9C653.244 546.9 652.811 547.007 652.424 547.22C652.038 547.433 651.731 547.733 651.504 548.12C651.291 548.493 651.184 548.933 651.184 549.44C651.184 549.96 651.291 550.413 651.504 550.8C651.731 551.173 652.038 551.467 652.424 551.68C652.811 551.893 653.244 552 653.724 552C654.218 552 654.651 551.893 655.024 551.68C655.411 551.467 655.711 551.173 655.924 550.8C656.151 550.413 656.264 549.96 656.264 549.44C656.264 548.933 656.151 548.493 655.924 548.12C655.711 547.733 655.411 547.433 655.024 547.22C654.651 547.007 654.218 546.9 653.724 546.9ZM652.664 539.62H654.764V542.9H652.664V539.62ZM667.943 540.04H680.583V545.1H670.103V548.08H667.983V543.52H678.483V541.7H667.943V540.04ZM667.983 547.06H681.023V548.76H667.983V547.06ZM666.003 550.4H682.563V552.1H666.003V550.4ZM673.203 551.02H675.283V557.68H673.203V551.02ZM693.957 556.24C692.877 556.24 691.917 556.047 691.077 555.66C690.237 555.26 689.484 554.74 688.817 554.1L690.337 552.32C690.897 552.84 691.471 553.253 692.057 553.56C692.657 553.853 693.284 554 693.937 554C694.777 554 695.451 553.78 695.957 553.34C696.464 552.9 696.717 552.313 696.717 551.58V551.54C696.717 550.82 696.444 550.253 695.897 549.84C695.364 549.427 694.671 549.22 693.817 549.22C693.311 549.22 692.844 549.28 692.417 549.4C691.991 549.52 691.597 549.667 691.237 549.84L689.757 548.86L690.157 542H698.517V544.18H692.277L692.057 547.46C692.391 547.34 692.724 547.247 693.057 547.18C693.404 547.1 693.811 547.06 694.277 547.06C694.957 547.06 695.591 547.153 696.177 547.34C696.777 547.513 697.291 547.787 697.717 548.16C698.157 548.52 698.504 548.98 698.757 549.54C699.011 550.087 699.137 550.727 699.137 551.46V551.5C699.137 552.22 699.011 552.873 698.757 553.46C698.517 554.033 698.171 554.527 697.717 554.94C697.264 555.353 696.717 555.673 696.077 555.9C695.437 556.127 694.731 556.24 693.957 556.24ZM700.419 548.58H716.979V550.26H700.419V548.58ZM707.819 549.62H709.919V553.68H707.819V549.62ZM702.519 540.18H714.859V546.78H702.519V540.18ZM712.779 541.84H704.559V545.12H712.779V541.84ZM702.439 555.58H715.139V557.28H702.439V555.58ZM702.439 552.02H704.539V556.16H702.439V552.02ZM731.617 539.36H733.617V557.64H731.617V539.36ZM725.237 545.8H728.537V547.5H725.237V545.8ZM727.957 539.74H729.917V556.76H727.957V539.74ZM721.557 542.26H723.137V544.4C723.137 545.4 723.051 546.393 722.877 547.38C722.717 548.353 722.464 549.267 722.117 550.12C721.784 550.973 721.357 551.747 720.837 552.44C720.317 553.12 719.711 553.673 719.017 554.1L717.737 552.56C718.617 552.013 719.337 551.313 719.897 550.46C720.457 549.593 720.871 548.64 721.137 547.6C721.417 546.547 721.557 545.48 721.557 544.4V542.26ZM721.997 542.26H723.577V544.4C723.577 545.44 723.711 546.46 723.977 547.46C724.244 548.46 724.651 549.367 725.197 550.18C725.757 550.98 726.464 551.633 727.317 552.14L726.077 553.66C725.157 553.1 724.397 552.347 723.797 551.4C723.197 550.44 722.744 549.36 722.437 548.16C722.144 546.96 721.997 545.707 721.997 544.4V542.26ZM718.317 541.36H726.577V543.08H718.317V541.36Z" fill="white"/>
<path d="M884.791 540.88H886.511V543.88C886.511 544.987 886.391 546.053 886.151 547.08C885.911 548.107 885.558 549.067 885.091 549.96C884.638 550.853 884.085 551.64 883.431 552.32C882.791 553 882.058 553.54 881.231 553.94L879.971 552.22C880.705 551.887 881.365 551.433 881.951 550.86C882.551 550.273 883.058 549.607 883.471 548.86C883.898 548.113 884.225 547.313 884.451 546.46C884.678 545.607 884.791 544.747 884.791 543.88V540.88ZM885.171 540.88H886.891V543.88C886.891 544.72 886.998 545.547 887.211 546.36C887.438 547.173 887.758 547.94 888.171 548.66C888.585 549.38 889.085 550.013 889.671 550.56C890.258 551.107 890.905 551.547 891.611 551.88L890.391 553.56C889.578 553.173 888.851 552.653 888.211 552C887.571 551.347 887.025 550.593 886.571 549.74C886.118 548.887 885.771 547.96 885.531 546.96C885.291 545.96 885.171 544.933 885.171 543.88V540.88ZM893.071 539.36H895.171V557.68H893.071V539.36ZM910.71 539.36H912.81V557.68H910.71V539.36ZM898.75 551.6H900.31C901.363 551.6 902.37 551.587 903.33 551.56C904.303 551.52 905.27 551.453 906.23 551.36C907.19 551.267 908.183 551.14 909.21 550.98L909.41 552.68C907.836 552.947 906.33 553.127 904.89 553.22C903.45 553.3 901.923 553.34 900.31 553.34H898.75V551.6ZM898.71 541H907.25V547.76H900.87V552.26H898.75V546.1H905.11V542.7H898.71V541ZM915.328 553.62H931.888V555.34H915.328V553.62ZM922.488 541.86H924.268V543.16C924.268 543.92 924.142 544.64 923.888 545.32C923.648 546 923.302 546.633 922.848 547.22C922.395 547.807 921.862 548.333 921.248 548.8C920.635 549.253 919.955 549.647 919.208 549.98C918.475 550.3 917.708 550.54 916.908 550.7L916.048 549C916.768 548.893 917.448 548.707 918.088 548.44C918.728 548.173 919.315 547.853 919.848 547.48C920.395 547.107 920.862 546.693 921.248 546.24C921.648 545.787 921.955 545.3 922.168 544.78C922.382 544.26 922.488 543.72 922.488 543.16V541.86ZM922.908 541.86H924.688V543.16C924.688 543.72 924.795 544.26 925.008 544.78C925.222 545.287 925.528 545.767 925.928 546.22C926.328 546.673 926.795 547.087 927.328 547.46C927.875 547.82 928.475 548.133 929.128 548.4C929.795 548.653 930.488 548.833 931.208 548.94L930.368 550.6C929.542 550.453 928.755 550.22 928.008 549.9C927.262 549.58 926.575 549.193 925.948 548.74C925.335 548.287 924.802 547.773 924.348 547.2C923.895 546.627 923.542 546 923.288 545.32C923.035 544.64 922.908 543.92 922.908 543.16V541.86ZM916.688 541.06H930.488V542.76H916.688V541.06ZM932.927 553.78H949.487V555.5H932.927V553.78ZM940.127 550.06H942.227V554.48H940.127V550.06ZM934.887 540.64H947.527V546.44H936.987V549.82H934.927V544.78H945.447V542.34H934.887V540.64ZM934.927 548.98H947.947V550.66H934.927V548.98ZM967.901 539.38H969.981V553.06H967.901V539.38ZM969.361 545.2H972.561V546.94H969.361V545.2ZM955.741 541.46H966.521V543.12H955.741V541.46ZM961.141 543.98C962.008 543.98 962.775 544.127 963.441 544.42C964.108 544.7 964.628 545.1 965.001 545.62C965.375 546.14 965.561 546.747 965.561 547.44C965.561 548.12 965.375 548.72 965.001 549.24C964.628 549.76 964.108 550.167 963.441 550.46C962.775 550.753 962.008 550.9 961.141 550.9C960.261 550.9 959.488 550.753 958.821 550.46C958.155 550.167 957.635 549.76 957.261 549.24C956.888 548.72 956.701 548.12 956.701 547.44C956.701 546.747 956.888 546.14 957.261 545.62C957.635 545.1 958.155 544.7 958.821 544.42C959.488 544.127 960.261 543.98 961.141 543.98ZM961.141 545.58C960.421 545.58 959.835 545.747 959.381 546.08C958.928 546.413 958.701 546.867 958.701 547.44C958.701 548.013 958.928 548.467 959.381 548.8C959.835 549.12 960.421 549.28 961.141 549.28C961.861 549.28 962.441 549.12 962.881 548.8C963.321 548.467 963.541 548.013 963.541 547.44C963.541 546.867 963.321 546.413 962.881 546.08C962.441 545.747 961.861 545.58 961.141 545.58ZM960.081 539.38H962.181V542.3H960.081V539.38ZM958.421 555.58H970.741V557.28H958.421V555.58ZM958.421 552H960.521V556.32H958.421V552ZM987.136 544.38H992.136V546.08H987.136V544.38ZM991.556 539.38H993.656V552.88H991.556V539.38ZM981.756 555.58H994.076V557.28H981.756V555.58ZM981.756 551.58H983.856V556.5H981.756V551.58ZM979.356 540.58H981.436V543.62H985.716V540.58H987.776V549.9H979.356V540.58ZM981.436 545.24V548.22H985.716V545.24H981.436ZM1002.21 551.48H1003.63C1004.75 551.48 1005.75 551.467 1006.63 551.44C1007.52 551.4 1008.36 551.34 1009.15 551.26C1009.95 551.18 1010.76 551.067 1011.59 550.92L1011.81 552.64C1010.96 552.8 1010.12 552.92 1009.29 553C1008.48 553.08 1007.62 553.14 1006.71 553.18C1005.8 553.207 1004.78 553.22 1003.63 553.22H1002.21V551.48ZM1002.21 541.06H1010.49V542.74H1004.29V552.12H1002.21V541.06ZM1014.39 539.36H1016.49V557.68H1014.39V539.36ZM1009.51 545.86H1015.29V547.58H1009.51V545.86Z" fill="white"/>
<path d="M175.945 394H957.054" stroke="white" stroke-width="2"/>
<path d="M184.442 405.007L199.214 407.612M185.745 397.621L200.517 400.226M200.369 372.278C200.134 372.234 199.869 372.188 199.567 372.134L188.551 370.192C185.793 369.706 184.413 369.462 183.265 369.813C182.256 370.122 181.37 370.742 180.735 371.585C180.012 372.544 179.769 373.924 179.283 376.682L174.247 405.241C173.761 407.999 173.518 409.377 173.869 410.525C174.177 411.535 174.797 412.421 175.64 413.057C176.598 413.779 177.976 414.022 180.729 414.507L199.455 417.809C202.207 418.294 203.584 418.537 204.731 418.186C205.74 417.878 206.628 417.257 207.264 416.413C207.986 415.456 208.228 414.079 208.714 411.327L212.394 390.454C212.447 390.152 212.494 389.888 212.533 389.652M200.369 372.278C201.07 372.408 201.509 372.513 201.915 372.689C202.396 372.899 202.843 373.182 203.236 373.53C203.679 373.922 204.03 374.424 204.731 375.425L211.069 384.477C211.771 385.479 212.119 385.978 212.336 386.528C212.529 387.017 212.644 387.532 212.676 388.056C212.703 388.499 212.651 388.948 212.533 389.652M200.369 372.278L199.152 379.17C198.666 381.928 198.423 383.306 198.774 384.454C199.083 385.464 199.703 386.35 200.546 386.986C201.504 387.707 202.882 387.95 205.634 388.436L212.533 389.652" stroke="#1C376B" stroke-width="3" stroke-linecap="round" stroke-linejoin="round"/>
<path fill-rule="evenodd" clip-rule="evenodd" d="M373.97 104.807C359.002 111.922 351.518 120.282 351.518 129.887C357.898 130.599 363.173 133.119 367.345 137.447C371.517 141.775 373.602 146.785 373.602 152.477C373.602 158.525 371.578 163.624 367.529 167.774C363.48 171.925 358.388 174 352.254 174C345.383 174 339.432 171.302 334.402 165.907C329.371 160.511 326.856 153.96 326.856 146.252C326.856 123.128 340.23 105.044 366.977 92L373.97 104.807ZM321.145 104.807C306.054 111.922 298.509 120.282 298.509 129.887C305.011 130.599 310.348 133.119 314.52 137.447C318.692 141.775 320.777 146.785 320.777 152.477C320.777 158.525 318.722 163.624 314.612 167.774C310.502 171.925 305.379 174 299.245 174C292.374 174 286.454 171.302 281.485 165.907C276.516 160.511 274.031 153.96 274.031 146.252C274.031 123.128 287.343 105.044 313.968 92L321.145 104.807Z" fill="#A0E8AF" fill-opacity="0.2"/>
<path d="M673.5 401.501V406C673.5 408.8 673.5 410.199 674.045 411.269C674.524 412.21 675.289 412.976 676.229 413.456C677.298 414 678.697 414 681.492 414H718.5M673.5 401.501V376.5M673.5 401.501L683.133 393.473L683.141 393.466C684.884 392.014 685.757 391.286 686.704 390.991C687.822 390.642 689.027 390.697 690.109 391.146C691.026 391.527 691.831 392.331 693.439 393.94L693.456 393.956C695.089 395.59 695.908 396.409 696.84 396.788C697.943 397.238 699.171 397.276 700.302 396.901C701.26 396.584 702.136 395.819 703.886 394.287L718.5 381.5" stroke="#1C376B" stroke-width="3" stroke-linecap="round" stroke-linejoin="round"/>
<path d="M939.5 379H940.342C940.954 379 941.26 379 941.547 379.069C941.802 379.13 942.047 379.232 942.271 379.369C942.523 379.523 942.74 379.74 943.172 380.172L950.829 387.829C951.261 388.261 951.476 388.476 951.631 388.728C951.768 388.952 951.87 389.197 951.932 389.452C952 389.736 952 390.039 952 390.638V409M939.5 379H928.499C927.099 379 926.4 379 925.865 379.272C925.394 379.512 925.012 379.894 924.772 380.365C924.5 380.9 924.5 381.6 924.5 383V412.5C924.5 413.9 924.5 414.599 924.772 415.134C925.012 415.605 925.394 415.988 925.865 416.228C926.399 416.5 927.098 416.5 928.495 416.5L948.003 416.5C949.4 416.5 950.101 416.5 950.635 416.228C951.106 415.988 951.487 415.605 951.727 415.135C951.999 414.6 952 413.9 952 412.5V409M939.5 379V387.5C939.5 388.9 939.5 389.6 939.772 390.134C940.012 390.605 940.394 390.988 940.865 391.228C941.399 391.5 942.098 391.5 943.495 391.5H951.999M942 379V375.5C942 374.1 942 373.4 942.272 372.865C942.512 372.394 942.894 372.012 943.365 371.772C943.9 371.5 944.599 371.5 945.999 371.5H957M957 371.5H957.842C958.454 371.5 958.76 371.5 959.047 371.569C959.302 371.63 959.547 371.732 959.771 371.869C960.023 372.023 960.24 372.24 960.672 372.672L968.329 380.329C968.761 380.761 968.976 380.976 969.131 381.228C969.268 381.452 969.37 381.697 969.432 381.952C969.5 382.236 969.5 382.539 969.5 383.138V405C969.5 406.4 969.499 407.1 969.227 407.635C968.987 408.105 968.607 408.488 968.137 408.728C967.603 409 966.902 409 965.505 409H952M957 371.5V380C957 381.4 957 382.1 957.272 382.634C957.512 383.105 957.894 383.488 958.365 383.728C958.899 384 959.598 384 960.995 384H969.499" stroke="#1C376B" stroke-width="3" stroke-linecap="round" stroke-linejoin="round"/>
<path d="M433.889 384.662H456.111M433.889 392.995H456.111M433.889 401.329H442.222M470 392.995C470.001 397.471 468.8 401.865 466.523 405.718C464.246 409.571 460.977 412.742 457.056 414.901C453.136 417.059 448.707 418.125 444.234 417.988C439.761 417.851 435.406 416.516 431.625 414.121L420 417.996L423.875 406.371C421.802 403.094 420.519 399.38 420.127 395.523C419.736 391.665 420.248 387.769 421.622 384.143C422.995 380.517 425.194 377.26 428.043 374.63C430.892 372 434.314 370.069 438.037 368.989C441.761 367.909 445.685 367.71 449.5 368.408C453.314 369.106 456.913 370.682 460.013 373.01C463.114 375.339 465.63 378.357 467.363 381.825C469.096 385.294 469.999 389.118 470 392.995Z" stroke="#1C376B" stroke-width="3" stroke-linecap="round" stroke-linejoin="round"/>
<path d="M534.694 164.847L517.82 135.957H534.566L542.236 150.658L549.97 135.957H566.525L549.651 164.655V180.698H534.694V164.847Z" fill="white"/>
<path d="M509.584 164.079L505.493 153.214L501.403 164.079H509.584ZM498.207 135.637H513.036L531.891 180.697H515.656L513.291 174.689H497.632L495.331 180.697H479.352L498.207 135.637Z" fill="white"/>
<path d="M457.206 167.659C460.657 167.659 463.384 166.935 465.387 165.486C467.432 163.995 468.455 161.63 468.455 158.392V158.264C468.455 155.025 467.432 152.682 465.387 151.233C463.384 149.742 460.657 148.996 457.206 148.996H454.713V167.659H457.206ZM442.039 135.957H456.886C461.317 135.957 465.195 136.49 468.519 137.555C471.885 138.578 474.676 140.048 476.892 141.965C479.108 143.883 480.769 146.205 481.877 148.932C482.985 151.616 483.539 154.62 483.539 157.944V158.072C483.539 161.396 482.964 164.442 481.813 167.212C480.706 169.982 479.001 172.368 476.7 174.37C474.442 176.373 471.608 177.928 468.199 179.036C464.833 180.144 460.891 180.698 456.375 180.698H442.039V135.957Z" fill="white"/>
<path d="M409.973 135.957H423.97L439.886 155.707V135.957H454.714V180.698H441.42L424.801 160.053V180.698H409.973V135.957Z" fill="#A0E8AF"/>
<path d="M384.757 168.428C386.164 168.428 387.442 168.151 388.592 167.597C389.743 167.043 390.723 166.319 391.533 165.424C392.342 164.487 392.96 163.421 393.386 162.228C393.812 161.035 394.025 159.778 394.025 158.457V158.329C394.025 157.008 393.791 155.751 393.322 154.558C392.896 153.323 392.278 152.236 391.469 151.299C390.659 150.361 389.679 149.615 388.528 149.062C387.378 148.508 386.078 148.231 384.63 148.231C383.223 148.231 381.945 148.508 380.795 149.062C379.644 149.615 378.664 150.361 377.854 151.299C377.045 152.193 376.427 153.237 376.001 154.43C375.575 155.624 375.362 156.881 375.362 158.201V158.329C375.362 159.65 375.575 160.929 376.001 162.164C376.47 163.357 377.109 164.423 377.918 165.36C378.728 166.297 379.708 167.043 380.858 167.597C382.009 168.151 383.309 168.428 384.757 168.428ZM384.63 181.659C381.178 181.659 377.961 181.062 374.978 179.869C372.038 178.676 369.46 177.035 367.244 174.947C365.071 172.86 363.367 170.409 362.131 167.597C360.895 164.742 360.277 161.696 360.277 158.457V158.329C360.277 155.091 360.895 152.066 362.131 149.253C363.409 146.398 365.135 143.927 367.308 141.839C369.524 139.708 372.123 138.047 375.106 136.854C378.089 135.618 381.306 135 384.757 135C388.209 135 391.405 135.597 394.345 136.79C397.328 137.983 399.906 139.623 402.079 141.711C404.294 143.799 406.02 146.271 407.256 149.125C408.492 151.938 409.11 154.963 409.11 158.201V158.329C409.11 161.568 408.47 164.614 407.192 167.469C405.956 170.282 404.231 172.753 402.015 174.884C399.842 176.971 397.264 178.633 394.281 179.869C391.298 181.062 388.081 181.659 384.63 181.659Z" fill="#A0E8AF"/>
<path d="M309 135.957H324.596L334.183 151.68L343.771 135.957H359.366V180.698H344.474V158.519L334.183 174.434H333.927L323.637 158.519V180.698H309V135.957Z" fill="#A0E8AF"/>
</g>
<defs>
<clipPath id="clip0_2749_2168">
<rect width="744" height="1133" fill="white" transform="matrix(0 1 -1 0 1133 0)"/>
</clipPath>
</defs>
</svg>
